<?xml version="1.0" encoding="UTF-8"?>
<svg version="1.1" xmlns="http://www.w3.org/2000/svg" width="640" height="640">
<path d="M0 0 C1.10788879 0.00215515 2.21577759 0.0043103 3.35723877 0.00653076 C19.24106862 0.05615787 34.79001687 0.32873452 50.4375 3.3125 C51.54029297 3.51649414 52.64308594 3.72048828 53.77929688 3.93066406 C100.97806019 12.85349026 146.56297188 31.3638821 184.4375 61.3125 C185.24832031 61.94285156 186.05914062 62.57320312 186.89453125 63.22265625 C189.43556986 65.22182556 191.94084967 67.25815522 194.4375 69.3125 C194.93942871 69.72274414 195.44135742 70.13298828 195.95849609 70.55566406 C209.16744944 81.40544805 221.88158934 93.2488959 232.421875 106.74609375 C233.80295981 108.50456802 235.2334117 110.22505393 236.703125 111.91015625 C272.18479403 152.59961864 293.95171272 207.30283043 301.4375 260.3125 C301.61482666 261.56393799 301.79215332 262.81537598 301.97485352 264.10473633 C303.66907854 277.01543479 303.79547187 289.86931664 303.75 302.875 C303.74784485 303.98288879 303.7456897 305.09077759 303.74346924 306.23223877 C303.69384213 322.11606862 303.42126548 337.66501687 300.4375 353.3125 C300.13150879 354.96668945 300.13150879 354.96668945 299.81933594 356.65429688 C290.89650974 403.85306019 272.3861179 449.43797188 242.4375 487.3125 C241.80714844 488.12332031 241.17679688 488.93414062 240.52734375 489.76953125 C238.52817444 492.31056986 236.49184478 494.81584967 234.4375 497.3125 C234.02725586 497.81442871 233.61701172 498.31635742 233.19433594 498.83349609 C222.34455195 512.04244944 210.5011041 524.75658934 197.00390625 535.296875 C195.24543198 536.67795981 193.52494607 538.1084117 191.83984375 539.578125 C151.15038136 575.05979403 96.44716957 596.82671272 43.4375 604.3125 C42.18606201 604.48982666 40.93462402 604.66715332 39.64526367 604.84985352 C26.73456521 606.54407854 13.88068336 606.67047187 0.875 606.625 C-0.78683319 606.62176727 -0.78683319 606.62176727 -2.48223877 606.61846924 C-18.36606862 606.56884213 -33.91501687 606.29626548 -49.5625 603.3125 C-51.21668945 603.00650879 -51.21668945 603.00650879 -52.90429688 602.69433594 C-100.10306019 593.77150974 -145.68797188 575.2611179 -183.5625 545.3125 C-184.37332031 544.68214844 -185.18414062 544.05179688 -186.01953125 543.40234375 C-188.56056986 541.40317444 -191.06584967 539.36684478 -193.5625 537.3125 C-194.06442871 536.90225586 -194.56635742 536.49201172 -195.08349609 536.06933594 C-208.29244944 525.21955195 -221.00658934 513.3761041 -231.546875 499.87890625 C-232.92795981 498.12043198 -234.3584117 496.39994607 -235.828125 494.71484375 C-271.30979403 454.02538136 -293.07671272 399.32216957 -300.5625 346.3125 C-300.73982666 345.06106201 -300.91715332 343.80962402 -301.09985352 342.52026367 C-302.79407854 329.60956521 -302.92047187 316.75568336 -302.875 303.75 C-302.87284485 302.64211121 -302.8706897 301.53422241 -302.86846924 300.39276123 C-302.81884213 284.50893138 -302.54626548 268.95998313 -299.5625 253.3125 C-299.35850586 252.20970703 -299.15451172 251.10691406 -298.94433594 249.97070312 C-290.02150974 202.77193981 -271.5111179 157.18702812 -241.5625 119.3125 C-240.93214844 118.50167969 -240.30179688 117.69085938 -239.65234375 116.85546875 C-237.65317444 114.31443014 -235.61684478 111.80915033 -233.5625 109.3125 C-233.15225586 108.81057129 -232.74201172 108.30864258 -232.31933594 107.79150391 C-221.46955195 94.58255056 -209.6261041 81.86841066 -196.12890625 71.328125 C-194.37043198 69.94704019 -192.64994607 68.5165883 -190.96484375 67.046875 C-150.27538136 31.56520597 -95.57216957 9.79828728 -42.5625 2.3125 C-41.31106201 2.13517334 -40.05962402 1.95784668 -38.77026367 1.77514648 C-25.85956521 0.08092146 -13.00568336 -0.04547187 0 0 Z " fill="#030303" transform="translate(312.5625,12.6875)"/>
<path d="M0 0 C45.5982988 -0.04576978 91.19659516 -0.08101532 136.7949124 -0.10213066 C142.17723981 -0.1046321 147.55956718 -0.10722074 152.94189453 -0.10986328 C154.54919286 -0.11065021 154.54919286 -0.11065021 156.18896186 -0.11145304 C173.54295464 -0.12015754 190.89693418 -0.13592776 208.2509191 -0.15430559 C226.05543229 -0.17300339 243.85993854 -0.18411647 261.66446114 -0.18817699 C272.65230092 -0.19092229 283.64010327 -0.19959568 294.62793154 -0.21583293 C302.16093987 -0.22639832 309.69392883 -0.22960163 317.22694403 -0.22700275 C321.5741828 -0.22572078 325.92135614 -0.22769711 330.2685833 -0.23841095 C334.24991318 -0.24815137 338.23113368 -0.24862975 342.21246862 -0.24179779 C343.65136542 -0.24095353 345.09026907 -0.24348388 346.52915239 -0.24976636 C363.43256556 -0.3192678 377.53601954 3.95598349 390.125 15.625 C394.7767014 20.47168289 397.94539934 26.05327743 401 32 C401.3403125 32.65484375 401.680625 33.3096875 402.03125 33.984375 C405.04334474 40.79170912 405.33735687 48.6672348 406 56 C406.08636719 56.91652344 406.17273438 57.83304688 406.26171875 58.77734375 C407.47149673 85.18387698 393.50548188 107.44669945 376.54467773 126.32617188 C371.58404459 131.70156319 366.43033252 136.5035826 360.5625 140.875 C359.87800781 141.38675781 359.19351562 141.89851562 358.48828125 142.42578125 C351.37010763 147.63451778 343.82276506 151.94815629 336 156 C335.37625488 156.32871094 334.75250977 156.65742188 334.10986328 156.99609375 C317.98585737 165.31502879 300.31986213 170.57306161 282.625 174.25 C281.79218506 174.42563477 280.95937012 174.60126953 280.10131836 174.78222656 C274.9686428 175.80022692 270.23202516 176.16838702 265 176 C267.92573639 182.26943513 272.34740702 186.52849629 277.26171875 191.3046875 C280.08801186 194.08663079 282.69313032 196.97088124 285.265625 199.984375 C287.25912581 202.30114621 289.31554388 204.55419984 291.375 206.8125 C294.51980389 210.28721563 297.51069275 213.84020046 300.4375 217.5 C304.22446092 222.19239485 308.33167576 226.37616132 312.64453125 230.58203125 C315.48876865 233.50173764 317.93172946 236.60568587 320.33203125 239.89453125 C322.37367497 242.47168808 324.65973924 244.69022021 327 247 C329.14616664 249.25123104 331.2615139 251.53060369 333.375 253.8125 C333.94500732 254.42762451 334.51501465 255.04274902 335.10229492 255.67651367 C347 268.55030166 347 268.55030166 347 270 C325.64232649 270.21041748 304.28482433 270.36903518 282.92632389 270.46630955 C273.00871658 270.51268031 263.09175398 270.57587779 253.17456055 270.67895508 C244.52878059 270.76877458 235.88346762 270.82675075 227.23723406 270.84679645 C222.66053374 270.85851127 218.08516913 270.88595967 213.50889778 270.95157051 C209.19683945 271.0128895 204.88666024 271.03145994 200.57420731 271.01796913 C198.99596486 271.02043515 197.41765638 271.03820707 195.83979225 271.07284927 C183.96159344 271.3207355 183.96159344 271.3207355 179.11794853 268.05952263 C176.84150316 265.81717806 174.91019034 263.55664943 173 261 C171.92401685 259.74366749 170.84200188 258.4924343 169.75 257.25 C169.19828125 256.60546875 168.6465625 255.9609375 168.078125 255.296875 C165.32532812 252.25431003 162.41708925 249.38421601 159.5 246.5 C155.44534102 242.4908798 151.56021841 238.44135488 147.87109375 234.08984375 C144.90037886 230.77182189 141.71343417 227.67032178 138.52514648 224.56225586 C135.77618491 221.86101453 133.17906056 219.08941296 130.6640625 216.16796875 C126.77313479 211.67062102 122.60257485 207.49152496 118.375 203.3125 C117.26898438 202.21325195 117.26898438 202.21325195 116.140625 201.09179688 C113.17914521 198.14889267 110.2132714 195.21055265 107.2421875 192.27734375 C104.99729351 189.99725107 102.86681649 187.64905869 100.75 185.25 C97.66747029 181.80270428 94.52278306 178.45482842 91.25 175.1875 C90.51652344 174.44886719 89.78304687 173.71023438 89.02734375 172.94921875 C87.10469065 171.03209182 87.10469065 171.03209182 85.25390625 169.64453125 C83.8125 168.5 83.8125 168.5 82 166 C83.17990139 158.31110618 85.98980497 151.24251948 88.75 144 C89.65592694 141.59021157 90.56087676 139.18005558 91.46484375 136.76953125 C92.12009033 135.02663818 92.12009033 135.02663818 92.78857422 133.24853516 C94.34394187 129.07769236 95.84334083 124.88936494 97.3125 120.6875 C97.54316162 120.02943359 97.77382324 119.37136719 98.01147461 118.69335938 C98.6755063 116.79598893 99.33776952 114.89799986 100 113 C100.93297452 110.33171837 101.87102499 107.66529288 102.8125 105 C103.40998047 103.2984375 103.40998047 103.2984375 104.01953125 101.5625 C105 99 105 99 106 98 C108.19099957 97.90170903 110.38522699 97.87535457 112.57843018 97.87542725 C113.62185125 97.87331202 113.62185125 97.87331202 114.68635154 97.87115407 C117.03473603 97.86748232 119.38306084 97.87084563 121.73144531 97.87402344 C123.40818835 97.87262955 125.08493103 97.87073082 126.76167297 97.86836243 C130.38158705 97.86385585 134.00148975 97.86200913 137.62140656 97.86190033 C143.34413036 97.86076285 149.06678923 97.84794528 154.78948975 97.83233643 C156.23647511 97.82847715 156.23647511 97.82847715 157.7126925 97.8245399 C159.68576563 97.819273 161.65883872 97.81398752 163.63191175 97.80868387 C176.96083514 97.77353751 190.28967882 97.7470221 203.61865234 97.74951172 C212.60106271 97.75109932 221.5832528 97.73508608 230.56559253 97.69880509 C235.32164561 97.68032325 240.07733085 97.67102127 244.83341217 97.68328094 C249.30855957 97.69470384 253.78304843 97.68304668 258.25810814 97.65364647 C259.90080512 97.6469964 261.54356219 97.64888897 263.18623543 97.65994453 C265.42949174 97.67378945 267.67051659 97.656957 269.91363525 97.63250732 C271.16874027 97.63104076 272.42384529 97.6295742 273.7169838 97.6280632 C278.78303755 96.65889286 280.84895661 93.5479549 283.8125 89.5625 C285.3040233 86.34394973 285.67033161 84.50062062 285 81 C280.48362049 77.16671352 276.73372869 76.41991716 270.9894104 76.48101807 C270.2002418 76.47351681 269.4110732 76.46601556 268.59799039 76.458287 C265.96300642 76.43804447 263.32888576 76.44610554 260.69384766 76.45410156 C258.80135244 76.44536467 256.90886462 76.43487848 255.01638794 76.42277527 C249.88461674 76.39490895 244.75308651 76.39151073 239.62125063 76.39249516 C234.25602093 76.38936662 228.89089984 76.3637496 223.52572632 76.34051514 C213.36862816 76.29994717 203.21159421 76.27961252 193.0544275 76.26654124 C181.48975909 76.25067393 169.9252 76.21225939 158.36059499 76.17194796 C134.57376668 76.08953807 110.78694137 76.03545273 87 76 C86.86530619 76.62076857 86.73061237 77.24153713 86.59183693 77.88111687 C86.32469415 79.10034686 86.32469415 79.10034686 86.05215454 80.34420776 C85.87621073 81.15060133 85.70026691 81.9569949 85.51899147 82.78782463 C84.97405714 85.11058017 84.26869314 87.24985057 83.3359375 89.4453125 C82.86631592 90.57658569 82.86631592 90.57658569 82.38720703 91.73071289 C82.05317871 92.52082764 81.71915039 93.31094238 81.375 94.125 C78.39581562 101.36782787 75.65596693 108.65129979 73.125 116.0625 C69.74923857 125.94358214 66.17225824 135.73903019 62.50048828 145.51391602 C62.1032959 146.57537842 61.70610352 147.63684082 61.296875 148.73046875 C60.94979492 149.65239014 60.60271484 150.57431152 60.24511719 151.52416992 C58.40824206 156.6519329 56.72244197 161.83267409 55 167 C17.05 167 -20.9 167 -60 167 C-56.63076923 155.76923077 -56.63076923 155.76923077 -55.0625 151.5625 C-54.76472656 150.75941406 -54.46695313 149.95632813 -54.16015625 149.12890625 C-53.77730469 148.09636719 -53.39445312 147.06382812 -53 146 C-49.48118656 136.3944249 -46.0530215 126.75670678 -42.62304688 117.11914062 C-39.71712512 108.96752146 -36.74573936 100.85790999 -33.55322266 92.81396484 C-30.88125092 86.05793029 -28.36882476 79.28532422 -26.125 72.375 C-23.52012126 64.3659436 -20.59941174 56.49794616 -17.61132812 48.62475586 C-14.06301448 39.24653912 -10.69288911 29.80931351 -7.36230469 20.35205078 C-4.05165672 10.99346685 -4.05165672 10.99346685 -2.2734375 6.94140625 C-1.24908067 4.57533051 -0.57614328 2.48892557 0 0 Z " fill="#FDFDFD" transform="translate(147,185)"/>
<path d="M0 0 C55.11 0 110.22 0 167 0 C167.33 0.99 167.66 1.98 168 3 C84.84 2.505 84.84 2.505 0 2 C0 1.34 0 0.68 0 0 Z " fill="#0A0A0A" transform="translate(256,280)"/>
<path d="M0 0 C0.66 1.32 1.32 2.64 2 4 C38.96 4 75.92 4 114 4 C114 4.33 114 4.66 114 5 C76.05 5 38.1 5 -1 5 C-0.67 3.35 -0.34 1.7 0 0 Z " fill="#CECECE" transform="translate(88,347)"/>
<path d="M0 0 C-0.33 0.99 -0.66 1.98 -1 3 C-2.92578125 3.73046875 -2.92578125 3.73046875 -5.3125 4.1875 C-6.09238281 4.34605469 -6.87226563 4.50460937 -7.67578125 4.66796875 C-10 5 -10 5 -14 5 C-11.75043698 2.75043698 -9.93676737 1.99489035 -7 0.8125 C-6.113125 0.44769531 -5.22625 0.08289063 -4.3125 -0.29296875 C-2 -1 -2 -1 0 0 Z " fill="#272727" transform="translate(477,345)"/>
<path d="M0 0 C4.13937592 3.30015998 7.58662205 6.17324411 10 11 C9.34 11.66 8.68 12.32 8 13 C6.65472507 11.59466816 5.3241269 10.17527548 4 8.75 C3.2575 7.96109375 2.515 7.1721875 1.75 6.359375 C0 4 0 4 0 0 Z " fill="#1D1D1D" transform="translate(443,395)"/>
<path d="M0 0 C7.48291572 6.15034169 7.48291572 6.15034169 10 10 C5.71193127 9.52354792 3.73352513 8.34097516 1 5 C1 4.34 1 3.68 1 3 C0.34 2.67 -0.32 2.34 -1 2 C-0.67 1.34 -0.34 0.68 0 0 Z " fill="#1B1B1B" transform="translate(262,385)"/>
<path d="M0 0 C2.31 0 4.62 0 7 0 C6.34 0.66 5.68 1.32 5 2 C4.3574765 4.06874034 4.3574765 4.06874034 4 6 C4.66 6 5.32 6 6 6 C5.67 6.99 5.34 7.98 5 9 C0 3.375 0 3.375 0 0 Z " fill="#242424" transform="translate(412,361)"/>
<path d="M0 0 C0.66 0.33 1.32 0.66 2 1 C-0.3125 3.5 -0.3125 3.5 -3 6 C-3.99 6 -4.98 6 -6 6 C-6.33 6.66 -6.66 7.32 -7 8 C-7.99 7.34 -8.98 6.68 -10 6 C-8.3811004 4.96951963 -6.75467511 3.95085322 -5.125 2.9375 C-4.22007812 2.36902344 -3.31515625 1.80054688 -2.3828125 1.21484375 C-1.20332031 0.61349609 -1.20332031 0.61349609 0 0 Z " fill="#212121" transform="translate(497,332)"/>
<path d="M0 0 C1.5625 1.75 1.5625 1.75 3 4 C2.6875 6.25 2.6875 6.25 2 8 C0.68 8 -0.64 8 -2 8 C-1.34 5.36 -0.68 2.72 0 0 Z " fill="#D8D8D8" transform="translate(243,309)"/>
<path d="M0 0 C2 3 2 3 1.75 5 C1 7 1 7 -1 10 C-1.66 10 -2.32 10 -3 10 C-2.01 6.7 -1.02 3.4 0 0 Z " fill="#272727" transform="translate(229,274)"/>
<path d="M0 0 C0.99 0.33 1.98 0.66 3 1 C2.1875 3.4375 2.1875 3.4375 1 6 C0.01 6.33 -0.98 6.66 -2 7 C-1.125 2.25 -1.125 2.25 0 0 Z " fill="#181818" transform="translate(427,274)"/>
<path d="M0 0 C0.99 0.33 1.98 0.66 3 1 C3.6875 3.0625 3.6875 3.0625 4 5 C3.01 5.66 2.02 6.32 1 7 C-0.0625 5.1875 -0.0625 5.1875 -1 3 C-0.67 2.01 -0.34 1.02 0 0 Z " fill="#1A1A1A" transform="translate(225,285)"/>
<path d="M0 0 C2.18975773 3.28463659 2.99806563 6.20696275 4 10 C3.34 9.67 2.68 9.34 2 9 C2 8.01 2 7.02 2 6 C1.01 5.67 0.02 5.34 -1 5 C-0.67 3.35 -0.34 1.7 0 0 Z " fill="#CACACA" transform="translate(547,217)"/>
<path d="M0 0 C0.99 0.66 1.98 1.32 3 2 C1.68 3.65 0.36 5.3 -1 7 C-1.33 5.35 -1.66 3.7 -2 2 C-1.34 2 -0.68 2 0 2 C0 1.34 0 0.68 0 0 Z " fill="#DDDDDD" transform="translate(539,285)"/>
<path d="M0 0 C0.66 0 1.32 0 2 0 C2.33 1.65 2.66 3.3 3 5 C1.35 5.33 -0.3 5.66 -2 6 C-1.34 4.02 -0.68 2.04 0 0 Z " fill="#131313" transform="translate(234,262)"/>
</svg>
