<?xml version="1.0" encoding="UTF-8"?>
<svg version="1.1" xmlns="http://www.w3.org/2000/svg" width="280" height="280">
<path d="M0 0 C0.72161316 0.00021149 1.44322632 0.00042297 2.18670654 0.00064087 C14.13774513 0.03547344 25.41990546 1.04624684 36.9375 4.375 C37.60297852 4.56223633 38.26845703 4.74947266 38.95410156 4.94238281 C43.36696814 6.21545195 47.65149616 7.72865947 51.9375 9.375 C52.58138672 9.62088867 53.22527344 9.86677734 53.88867188 10.12011719 C87.60121958 23.22689793 114.78045869 51.29707379 129.5625 84 C133.27211227 92.50937951 135.86434791 101.33613485 137.9375 110.375 C138.12441406 111.1469873 138.31132812 111.91897461 138.50390625 112.71435547 C140.43231088 121.69693313 140.3334787 130.73128242 140.3125 139.875 C140.31228851 140.72160187 140.31207703 141.56820374 140.31185913 142.44046021 C140.28085936 154.8484474 139.67770558 166.46289084 135.9375 178.375 C135.57044886 179.67154555 135.20456021 180.96842077 134.83984375 182.265625 C128.64309094 202.68340035 116.53146719 224.6881611 100.9375 239.375 C100.2775 239.375 99.6175 239.375 98.9375 239.375 C98.71578125 239.93832031 98.4940625 240.50164062 98.265625 241.08203125 C88.45229655 258.02445419 58.561315 270.1141597 40.9375 275.375 C35.30668335 276.86780943 29.6325284 278.15335353 23.9375 279.375 C23.20362061 279.551521 22.46974121 279.72804199 21.71362305 279.90991211 C18.07812394 280.51897251 14.48069527 280.57592027 10.8046875 280.61328125 C10.01922043 280.62302979 9.23375336 280.63277832 8.42448425 280.64282227 C-23.2563249 280.95532755 -23.2563249 280.95532755 -38.0625 276.375 C-39.26519531 276.05917969 -40.46789062 275.74335938 -41.70703125 275.41796875 C-58.29011809 270.62091113 -74.98353568 261.6266051 -88.0625 250.375 C-88.91457031 249.64796875 -89.76664063 248.9209375 -90.64453125 248.171875 C-93.16763563 245.95495379 -95.62177391 243.68209535 -98.0625 241.375 C-98.87332031 240.62863281 -99.68414062 239.88226563 -100.51953125 239.11328125 C-110.63721377 229.47359948 -119.01898314 217.97912607 -125.0625 205.375 C-125.3728418 204.73755859 -125.68318359 204.10011719 -126.00292969 203.44335938 C-135.29938851 184.17433563 -140.4448843 164.72039917 -140.37817383 143.24951172 C-140.37502401 141.14106936 -140.39853675 139.03405061 -140.42382812 136.92578125 C-140.60607583 97.84402639 -122.15952379 64.25529905 -95.625 36.75 C-93.0625 34.375 -93.0625 34.375 -91.0625 34.375 C-91.0625 33.715 -91.0625 33.055 -91.0625 32.375 C-88.42432562 30.0851822 -85.45223871 28.20776073 -82.5625 26.25 C-81.70188965 25.66541016 -80.8412793 25.08082031 -79.95458984 24.47851562 C-55.88818126 8.42537409 -28.96034686 -0.07878041 0 0 Z " fill="#0E0E0E" transform="translate(140.0625,-0.375)"/>
<path d="M0 0 C0.5938147 0.36479965 1.18762939 0.7295993 1.79943848 1.10545349 C3.8203125 2.46875 3.8203125 2.46875 6.16442871 4.42591858 C15.35114554 11.61113504 23.15698923 11.58925626 34.421875 11.43359375 C36.19356645 11.43858373 37.96525098 11.44723863 39.73690796 11.45936584 C44.36268239 11.48197606 48.98701816 11.45821413 53.6126709 11.42333984 C59.25818144 11.38927945 64.90371472 11.4093448 70.54927635 11.42237949 C74.93446229 11.43165644 79.31911405 11.4325899 83.70425415 11.40818787 C84.50572876 11.4052623 85.30720337 11.40233673 86.13296509 11.39932251 C87.63128748 11.39351514 89.12960171 11.38387327 90.62786865 11.36973572 C95.59554293 11.35636521 95.59554293 11.35636521 97.8203125 12.46875 C97.84918234 16.44790159 97.86706656 20.42702653 97.8828125 24.40625 C97.89119141 25.54255859 97.89957031 26.67886719 97.90820312 27.84960938 C97.91142578 28.92919922 97.91464844 30.00878906 97.91796875 31.12109375 C97.92320557 32.12132568 97.92844238 33.12155762 97.93383789 34.15209961 C97.8203125 36.46875 97.8203125 36.46875 96.8203125 37.46875 C93.73801538 37.59611485 90.67768104 37.65805386 87.59399414 37.67749023 C86.14020355 37.69216591 86.14020355 37.69216591 84.65704346 37.70713806 C81.43153265 37.73718501 78.20606385 37.75851029 74.98046875 37.77734375 C73.32913342 37.78720149 73.32913342 37.78720149 71.64443779 37.79725838 C65.81041627 37.82990227 59.97641332 37.8543335 54.14233398 37.8737793 C49.31849389 37.89155399 44.49524259 37.92630603 39.67163086 37.97631836 C33.84784817 38.036636 28.02460929 38.06727264 22.2005291 38.07695198 C19.98423382 38.08549352 17.76795253 38.10427925 15.55183601 38.1336956 C-5.39707314 38.39665449 -5.39707314 38.39665449 -12.46022034 33.15003967 C-17.11950965 28.594201 -20.77003862 23.95313484 -22.1796875 17.46875 C-22.1796875 15.48875 -22.1796875 13.50875 -22.1796875 11.46875 C-13.2696875 11.13875 -4.3596875 10.80875 4.8203125 10.46875 C-14.35617296 -1.17492463 -14.35617296 -1.17492463 -36.1796875 -3.53125 C-37.74681159 -1.96412591 -37.50107813 -0.46269877 -37.6171875 1.71875 C-37.3411307 23.25118022 -14.02539987 43.70482285 -0.1796875 58.46875 C2.6282348 57.16766531 4.40499329 55.96933516 6.8203125 53.90625 C11.62357047 50.0036029 15.84064831 50.31988924 21.86181641 50.32348633 C22.66873428 50.32012772 23.47565216 50.3167691 24.30702209 50.31330872 C26.9703221 50.30382048 29.63355915 50.30185703 32.296875 50.30078125 C34.14724758 50.29756846 35.9976199 50.29420437 37.84799194 50.29069519 C41.72321156 50.28471016 45.5984089 50.28285478 49.47363281 50.28344727 C54.44839037 50.28354914 59.42300602 50.26986786 64.39772987 50.25267506 C68.21689517 50.24158176 72.03602578 50.23952719 75.85520554 50.24005699 C77.69009264 50.23887395 79.52498055 50.23443417 81.35985184 50.22672462 C83.91920331 50.2169735 86.4782416 50.2197827 89.03759766 50.22583008 C90.18155251 50.21740082 90.18155251 50.21740082 91.34861755 50.20880127 C96.59199314 50.24043064 96.59199314 50.24043064 98.8203125 52.46875 C99.07910156 54.68359375 99.07910156 54.68359375 99.0859375 57.40625 C99.08851563 58.38335937 99.09109375 59.36046875 99.09375 60.3671875 C99.08601562 61.39070313 99.07828125 62.41421875 99.0703125 63.46875 C99.07804688 64.49226563 99.08578125 65.51578125 99.09375 66.5703125 C99.09117187 67.54742187 99.08859375 68.52453125 99.0859375 69.53125 C99.08368164 70.42972656 99.08142578 71.32820313 99.07910156 72.25390625 C98.8203125 74.46875 98.8203125 74.46875 96.8203125 76.46875 C94.21875 76.6640625 94.21875 76.6640625 91.1953125 76.59375 C90.19242188 76.57570313 89.18953125 76.55765625 88.15625 76.5390625 C87.38539063 76.51585937 86.61453125 76.49265625 85.8203125 76.46875 C86.4390625 77.32533203 86.4390625 77.32533203 87.0703125 78.19921875 C109.54319113 109.75154165 109.54319113 109.75154165 106.8203125 126.46875 C105.53603948 129.24808856 104.52094234 130.95526411 102.05078125 132.765625 C99.01585536 133.7223442 96.31248202 133.73274195 93.1328125 133.71875 C91.97394531 133.72390625 90.81507813 133.7290625 89.62109375 133.734375 C81.30107834 133.15291452 74.41271061 130.72050976 66.9453125 127.09375 C66.03692627 126.65530762 65.12854004 126.21686523 64.19262695 125.76513672 C41.04262991 114.32773254 20.28691886 98.22372966 1.359375 80.7890625 C-0.72463653 78.88459658 -2.83839836 77.04259698 -4.9921875 75.21875 C-14.99132293 66.49522444 -23.97514324 56.8828043 -32.1796875 46.46875 C-32.91574219 45.59992188 -33.65179688 44.73109375 -34.41015625 43.8359375 C-46.18914203 29.92821935 -59.95773654 11.71761729 -59.4921875 -7.1953125 C-59.00293671 -10.85246213 -57.69613597 -12.88235688 -55.1796875 -15.53125 C-38.1985128 -24.02183735 -14.27046342 -8.77144324 0 0 Z " fill="#FBFBFB" transform="translate(111.1796875,85.53125)"/>
<path d="M0 0 C0.95436447 -0.01568527 1.90872894 -0.03137054 2.89201355 -0.04753113 C4.91008427 -0.07214438 6.92831522 -0.08573611 8.9465332 -0.08911133 C12.02373256 -0.10536713 15.09406324 -0.19080956 18.16992188 -0.27929688 C32.42206742 -0.48104181 32.42206742 -0.48104181 37.04321289 2.55493164 C38.87185558 4.86998016 40.06183596 7.00727956 41.23046875 9.70703125 C41.93816406 10.77050781 42.64585937 11.83398438 43.375 12.9296875 C47.28200481 19.58166055 50.49083939 25.10714989 50.04296875 33.01953125 C49.1700304 35.90694272 48.52652053 36.83815189 46.23046875 38.70703125 C28.63977778 41.39035699 8.66512957 26.11696246 -4.76953125 16.70703125 C-6.12884766 15.77503906 -6.12884766 15.77503906 -7.515625 14.82421875 C-8.75505859 13.93089844 -8.75505859 13.93089844 -10.01953125 13.01953125 C-10.7465625 12.50003906 -11.47359375 11.98054687 -12.22265625 11.4453125 C-13.76953125 9.70703125 -13.76953125 9.70703125 -14.25390625 7.25 C-12.79770345 -0.39506469 -6.38529054 0.05267624 0 0 Z " fill="#111111" transform="translate(154.76953125,161.29296875)"/>
<path d="M0 0 C3.25294608 1.91165553 6.00929443 3.78152241 8.75 6.375 C11.82014036 9.18929533 14.9807635 11.766616 18.328125 14.23828125 C19.47909668 15.09123779 19.47909668 15.09123779 20.65332031 15.96142578 C22.20155941 17.10021588 23.758111 18.22780147 25.32324219 19.34326172 C30.75692397 23.35209514 30.75692397 23.35209514 32.0625 26.83203125 C32 29 32 29 31 30 C26.88422411 30.21789186 22.76535077 30.18579188 18.64428711 30.18530273 C16.57449736 30.18748734 14.50524207 30.20563491 12.43554688 30.22460938 C11.13810547 30.22654297 9.84066406 30.22847656 8.50390625 30.23046875 C7.30580322 30.23457764 6.1077002 30.23868652 4.87329102 30.24291992 C2 30 2 30 0 28 C-0.22705078 25.20263672 -0.22705078 25.20263672 -0.1953125 21.6796875 C-0.18886719 20.42285156 -0.18242188 19.16601562 -0.17578125 17.87109375 C-0.15902344 16.55238281 -0.14226562 15.23367187 -0.125 13.875 C-0.11496983 12.53516279 -0.10584404 11.19531848 -0.09765625 9.85546875 C-0.07402075 6.57013427 -0.04107234 3.28515535 0 0 Z " fill="#F9F9F9" transform="translate(109,171)"/>
</svg>
