<?xml version="1.0" encoding="UTF-8"?>
<svg version="1.1" xmlns="http://www.w3.org/2000/svg" width="250" height="250">
<path d="M0 0 C0.763125 0.309375 1.52625 0.61875 2.3125 0.9375 C7.17314841 2.33802581 11.96858173 2.65979734 17 3 C17.33 2.01 17.66 1.02 18 0 C18.495 0.309375 18.99 0.61875 19.5 0.9375 C22.97986781 2.41644382 26.24028509 2.62402851 30 3 C30 2.34 30 1.68 30 1 C35.68099789 1.9212429 41.33935016 2.96254994 47 4 C47 3.34 47 2.68 47 2 C50.02213254 2.08755429 53.04152681 2.19451063 56.0625 2.3125 C57.33383789 2.34633789 57.33383789 2.34633789 58.63085938 2.38085938 C64.16530499 2.61591305 67.99714042 3.67130321 73 6 C75.84079146 5.61446793 75.84079146 5.61446793 78 4 C79.34410262 1.98264795 79.34410262 1.98264795 80 0 C80.99 0.66 81.98 1.32 83 2 C85.22276119 2.22312342 87.45498844 2.35785364 89.6875 2.4375 C95.44120337 2.75946889 99.78473866 3.60097979 105 6 C104.505 4.02 104.505 4.02 104 2 C104.763125 2.165 105.52625 2.33 106.3125 2.5 C109.57274174 2.94206668 112.29969112 2.90873124 115.5625 2.75 C119.6285483 2.71127573 120.67407711 2.77185398 124.125 5.1875 C125.96190858 7.94286287 126.71956235 9.72822744 127 13 C127.66 13 128.32 13 129 13 C129.144375 11.7625 129.28875 10.525 129.4375 9.25 C129.78688502 6.43495501 130.20379366 3.7298503 131 1 C132.65 1.66 134.3 2.32 136 3 C136 2.01 136 1.02 136 0 C137.98 0.33 139.96 0.66 142 1 C142 1.66 142 2.32 142 3 C143.3921875 3.1546875 143.3921875 3.1546875 144.8125 3.3125 C148.03254358 4.0070192 149.02579865 4.47740939 151 7 C151.474375 6.38125 151.94875 5.7625 152.4375 5.125 C157.27372616 1.11447099 162.99917699 0.74213606 169.125 1.125 C173.87998815 1.72680319 177.04936304 3.33761423 181 6 C181.474375 5.505 181.94875 5.01 182.4375 4.5 C186.22155914 2.28494099 189.71551811 2.2897383 194 3 C196.87029869 4.79393668 198.49131638 5.98263276 200 9 C200.309375 8.21625 200.61875 7.4325 200.9375 6.625 C202 4 202 4 203 2 C204.91750286 2.08743331 206.83406665 2.1956189 208.75 2.3125 C209.81734375 2.37050781 210.8846875 2.42851563 211.984375 2.48828125 C215.40777371 3.06919476 216.63724628 3.47131817 219 6 C219.39319785 8.8195443 219.53761512 11.24403488 219.49609375 14.0625 C219.49754898 14.85019775 219.49900421 15.63789551 219.50050354 16.44946289 C219.49884455 18.11380718 219.48728312 19.77816681 219.46655273 21.44238281 C219.43760341 23.99089676 219.4459411 26.53732999 219.45898438 29.0859375 C219.45274667 30.70313512 219.44435547 32.32032616 219.43359375 33.9375 C219.43652939 34.70006104 219.43946503 35.46262207 219.44248962 36.24829102 C219.34874076 41.50209792 219.34874076 41.50209792 217.61694336 43.97460938 C214.1398543 46.17961829 209.91634301 45.69332388 206 45 C202.9375 42.5625 202.9375 42.5625 201 40 C200.67 39.67 200.34 39.34 200 39 C199.525625 39.804375 199.05125 40.60875 198.5625 41.4375 C197 44 197 44 196 45 C186.31251422 45.97675477 186.31251422 45.97675477 182.3125 43 C181.879375 42.34 181.44625 41.68 181 41 C180.21689453 41.54140625 180.21689453 41.54140625 179.41796875 42.09375 C173.35008136 45.91938829 168.13815916 47.46551592 161 46 C157.40334987 44.33150054 154.20062392 42.33277578 151 40 C150.566875 40.825 150.13375 41.65 149.6875 42.5 C146.0130103 45.91812995 143.41054942 45.48301132 138.55859375 45.37109375 C136 45 136 45 133 43 C132.3125 40.875 132.3125 40.875 132 39 C130.2984375 39.0309375 130.2984375 39.0309375 128.5625 39.0625 C125 39 125 39 124 38 C123.566875 39.175625 123.566875 39.175625 123.125 40.375 C122 43 122 43 120 45 C117.50390625 45.30078125 117.50390625 45.30078125 114.5625 45.3125 C113.11037109 45.33763672 113.11037109 45.33763672 111.62890625 45.36328125 C109 45 109 45 107.1953125 43.8046875 C105.62873889 41.43946852 105.49542905 39.62960743 105.3125 36.8125 C105.24675781 35.91144531 105.18101563 35.01039063 105.11328125 34.08203125 C105.05720703 33.05142578 105.05720703 33.05142578 105 32 C104.41734375 32.48082031 103.8346875 32.96164063 103.234375 33.45703125 C100.25150157 35.51688265 97.56075615 35.6576196 94 36 C93.896875 37.11375 93.79375 38.2275 93.6875 39.375 C93.460625 40.57125 93.23375 41.7675 93 43 C89.54639557 45.30240295 88.19500616 45.25691777 84.125 45.265625 C82.97515625 45.26820313 81.8253125 45.27078125 80.640625 45.2734375 C79.43921875 45.26570313 78.2378125 45.25796875 77 45.25 C75.19789062 45.26160156 75.19789062 45.26160156 73.359375 45.2734375 C71.63460937 45.26957031 71.63460937 45.26957031 69.875 45.265625 C68.29332031 45.26224121 68.29332031 45.26224121 66.6796875 45.25878906 C64 45 64 45 61 43 C60.01 43.99 60.01 43.99 59 45 C56.12220764 45.26069641 56.12220764 45.26069641 52.39477539 45.2746582 C51.71655228 45.27976913 51.03832916 45.28488007 50.33955383 45.29014587 C48.09216547 45.30407348 45.8450827 45.30308274 43.59765625 45.30078125 C42.03828313 45.30466657 40.47891108 45.3090009 38.91954041 45.31376648 C35.64855522 45.32123558 32.37767795 45.32093255 29.10668945 45.31567383 C24.91207802 45.30987946 20.71790819 45.3268057 16.52336979 45.3500185 C13.30205191 45.36474118 10.08084072 45.36562954 6.85949516 45.36250877 C5.31291263 45.36302277 3.76632424 45.36827516 2.21977425 45.37832069 C0.05776301 45.39063936 -2.10338376 45.38392183 -4.26538086 45.37231445 C-6.11165321 45.37325859 -6.11165321 45.37325859 -7.995224 45.3742218 C-11 45 -11 45 -12.89381409 43.60710144 C-15.07960879 40.43151063 -14.62054759 36.67102888 -14 33 C-12.66666667 31.33333333 -11.33333333 29.66666667 -10 28 C-9.65026975 24.97071883 -9.76192996 22.03539295 -10 19 C-10.99 18.67 -11.98 18.34 -13 18 C-13.765625 16.07421875 -13.765625 16.07421875 -14.25 13.6875 C-14.42015625 12.90761719 -14.5903125 12.12773438 -14.765625 11.32421875 C-15.00771617 8.92348133 -14.7310448 7.28190412 -14 5 C-13.34 5.33 -12.68 5.66 -12 6 C-12 5.34 -12 4.68 -12 4 C-9.47524538 2.73762269 -7.68799534 2.90143596 -4.875 2.9375 C-3.96492188 2.94652344 -3.05484375 2.95554687 -2.1171875 2.96484375 C-1.41851562 2.97644531 -0.71984375 2.98804687 0 3 C0 2.01 0 1.02 0 0 Z M201 10 C202 12 202 12 202 12 Z M-8 20 C-7.34 20.66 -6.68 21.32 -6 22 C-5.34 21.34 -4.68 20.68 -4 20 C-5.32 20 -6.64 20 -8 20 Z M16 20 C17 22 17 22 17 22 Z M15 22 C13.63823419 23.98075027 12.30406884 25.98079663 11 28 C12.98 28 14.96 28 17 28 C16.67 26.02 16.34 24.04 16 22 C15.67 22 15.34 22 15 22 Z " fill="#0E4F11" transform="translate(21,102)"/>
<path d="M0 0 C1.58246707 -0.08153933 3.16616273 -0.13943557 4.75 -0.1875 C6.07257813 -0.23970703 6.07257813 -0.23970703 7.421875 -0.29296875 C10.67100515 0.07625058 11.75117304 0.61199769 14 3 C14.39319785 5.8195443 14.53761512 8.24403488 14.49609375 11.0625 C14.49754898 11.85019775 14.49900421 12.63789551 14.50050354 13.44946289 C14.49884455 15.11380718 14.48728312 16.77816681 14.46655273 18.44238281 C14.43760341 20.99089676 14.4459411 23.53732999 14.45898438 26.0859375 C14.45274667 27.70313512 14.44435547 29.32032616 14.43359375 30.9375 C14.43652939 31.70006104 14.43946503 32.46262207 14.44248962 33.24829102 C14.34874076 38.50209792 14.34874076 38.50209792 12.61694336 40.97460938 C9.1398543 43.17961829 4.91634301 42.69332388 1 42 C-2.0625 39.5625 -2.0625 39.5625 -4 37 C-4.33 36.67 -4.66 36.34 -5 36 C-5.474375 36.804375 -5.94875 37.60875 -6.4375 38.4375 C-8 41 -8 41 -9 42 C-18.68748578 42.97675477 -18.68748578 42.97675477 -22.6875 40 C-23.120625 39.34 -23.55375 38.68 -24 38 C-24.78310547 38.54140625 -24.78310547 38.54140625 -25.58203125 39.09375 C-31.64991864 42.91938829 -36.86184084 44.46551592 -44 43 C-47.59665013 41.33150054 -50.79937608 39.33277578 -54 37 C-54.433125 37.825 -54.86625 38.65 -55.3125 39.5 C-58.9869897 42.91812995 -61.58945058 42.48301132 -66.44140625 42.37109375 C-69 42 -69 42 -72 40 C-72.6875 37.875 -72.6875 37.875 -73 36 C-74.7015625 36.0309375 -74.7015625 36.0309375 -76.4375 36.0625 C-80 36 -80 36 -81 35 C-81.433125 36.175625 -81.433125 36.175625 -81.875 37.375 C-83 40 -83 40 -85 42 C-87.49609375 42.30078125 -87.49609375 42.30078125 -90.4375 42.3125 C-91.88962891 42.33763672 -91.88962891 42.33763672 -93.37109375 42.36328125 C-96 42 -96 42 -97.8046875 40.8046875 C-99.37126111 38.43946852 -99.50457095 36.62960743 -99.6875 33.8125 C-99.75324219 32.91144531 -99.81898437 32.01039063 -99.88671875 31.08203125 C-99.94279297 30.05142578 -99.94279297 30.05142578 -100 29 C-100.58265625 29.48082031 -101.1653125 29.96164063 -101.765625 30.45703125 C-104.74849843 32.51688265 -107.43924385 32.6576196 -111 33 C-111.103125 34.11375 -111.20625 35.2275 -111.3125 36.375 C-111.539375 37.57125 -111.76625 38.7675 -112 40 C-115.45360443 42.30240295 -116.80499384 42.25691777 -120.875 42.265625 C-122.02484375 42.26820313 -123.1746875 42.27078125 -124.359375 42.2734375 C-125.56078125 42.26570313 -126.7621875 42.25796875 -128 42.25 C-129.80210937 42.26160156 -129.80210937 42.26160156 -131.640625 42.2734375 C-133.36539063 42.26957031 -133.36539063 42.26957031 -135.125 42.265625 C-136.70667969 42.26224121 -136.70667969 42.26224121 -138.3203125 42.25878906 C-141 42 -141 42 -144 40 C-144.99 40.99 -144.99 40.99 -146 42 C-148.87779236 42.26069641 -148.87779236 42.26069641 -152.60522461 42.2746582 C-153.28344772 42.27976913 -153.96167084 42.28488007 -154.66044617 42.29014587 C-156.90783453 42.30407348 -159.1549173 42.30308274 -161.40234375 42.30078125 C-162.96171687 42.30466657 -164.52108892 42.3090009 -166.08045959 42.31376648 C-169.35144478 42.32123558 -172.62232205 42.32093255 -175.89331055 42.31567383 C-180.08792198 42.30987946 -184.28209181 42.3268057 -188.47663021 42.3500185 C-191.69794809 42.36474118 -194.91915928 42.36562954 -198.14050484 42.36250877 C-199.68708737 42.36302277 -201.23367576 42.36827516 -202.78022575 42.37832069 C-204.94223699 42.39063936 -207.10338376 42.38392183 -209.26538086 42.37231445 C-211.11165321 42.37325859 -211.11165321 42.37325859 -212.995224 42.3742218 C-216 42 -216 42 -217.89381409 40.60710144 C-220.07960879 37.43151063 -219.62054759 33.67102888 -219 30 C-217.66666667 28.33333333 -216.33333333 26.66666667 -215 25 C-214.65026975 21.97071883 -214.76192996 19.03539295 -215 16 C-215.99 15.67 -216.98 15.34 -218 15 C-218.765625 13.07421875 -218.765625 13.07421875 -219.25 10.6875 C-219.42015625 9.90761719 -219.5903125 9.12773438 -219.765625 8.32421875 C-220.00771617 5.92348133 -219.7310448 4.28190412 -219 2 C-217.4375 3 -217.4375 3 -216 5 C-216.03273548 7.76614782 -216.50595672 10.26030547 -217 13 C-215.68 13.33 -214.36 13.66 -213 14 C-212.67 13.34 -212.34 12.68 -212 12 C-212 12.66 -212 13.32 -212 14 C-210.02 14 -208.04 14 -206 14 C-206.99 15.32 -207.98 16.64 -209 18 C-210.32 17.67 -211.64 17.34 -213 17 C-213 17.99 -213 18.98 -213 20 C-212.34 20.33 -211.68 20.66 -211 21 C-211.66 21 -212.32 21 -213 21 C-213 21.99 -213 22.98 -213 24 C-211.68 23.34 -210.36 22.68 -209 22 C-209.99 25.3 -210.98 28.6 -212 32 C-203.75 32 -195.5 32 -187 32 C-187 30.35 -187 28.7 -187 27 C-186.01 27.33 -185.02 27.66 -184 28 C-184.144375 26.72125 -184.28875 25.4425 -184.4375 24.125 C-184.51871094 23.40570313 -184.59992188 22.68640625 -184.68359375 21.9453125 C-184.91292961 19.92595684 -184.91292961 19.92595684 -186 18 C-185.01 17.67 -184.02 17.34 -183 17 C-183 21.62 -183 26.24 -183 31 C-181.35 31.33 -179.7 31.66 -178 32 C-178 32.33 -178 32.66 -178 33 C-174.37 33.33 -170.74 33.66 -167 34 C-167.495 32.02 -167.495 32.02 -168 30 C-165.69 30.66 -163.38 31.32 -161 32 C-161 30.35 -161 28.7 -161 27 C-163.97 27.66 -166.94 28.32 -170 29 C-170 28.34 -170 27.68 -170 27 C-171.32 27 -172.64 27 -174 27 C-174 24.36 -174 21.72 -174 19 C-170.04 19 -166.08 19 -162 19 C-162 17.68 -162 16.36 -162 15 C-165.63 15 -169.26 15 -173 15 C-174 10 -174 10 -174 7 C-169.71 7 -165.42 7 -161 7 C-161 7.66 -161 8.32 -161 9 C-162.65 9 -164.3 9 -166 9 C-166 9.66 -166 10.32 -166 11 C-167.65 11.33 -169.3 11.66 -171 12 C-167.99145768 13.25522481 -167.99145768 13.25522481 -164.6875 12.5 C-161 12 -161 12 -155 13 C-155 19.27 -155 25.54 -155 32 C-152.36 32 -149.72 32 -147 32 C-147 28.37 -147 24.74 -147 21 C-146.01 21 -145.02 21 -144 21 C-142.99491199 22.78881736 -141.99607264 24.58114696 -141 26.375 C-140.443125 27.37273437 -139.88625 28.37046875 -139.3125 29.3984375 C-138 32 -138 32 -138 34 C-137.21753906 33.9278125 -136.43507813 33.855625 -135.62890625 33.78125 C-134.61699219 33.6884375 -133.60507813 33.595625 -132.5625 33.5 C-131.55316406 33.4071875 -130.54382813 33.314375 -129.50390625 33.21875 C-127 33 -127 33 -126 33 C-126.01160156 32.32195312 -126.02320312 31.64390625 -126.03515625 30.9453125 C-126.09708351 24.55795793 -125.77018868 18.34030324 -125 12 C-124.67 12 -124.34 12 -124 12 C-124 19.26 -124 26.52 -124 34 C-123.34 34 -122.68 34 -122 34 C-121.67 34.99 -121.34 35.98 -121 37 C-121.495 37.99 -121.495 37.99 -122 39 C-119.69 38.34 -117.38 37.68 -115 37 C-114.67 34.69 -114.34 32.38 -114 30 C-113.43152344 29.91363281 -112.86304687 29.82726562 -112.27734375 29.73828125 C-106.31815895 28.65388869 -102.70597846 26.80483365 -98 23 C-97.93941406 23.99902344 -97.87882812 24.99804688 -97.81640625 26.02734375 C-97.73261719 27.31769531 -97.64882812 28.60804688 -97.5625 29.9375 C-97.48128906 31.22527344 -97.40007812 32.51304687 -97.31640625 33.83984375 C-97.35080812 36.86023957 -97.35080812 36.86023957 -96 38 C-94.31391034 38.07205511 -92.62499341 38.08386068 -90.9375 38.0625 C-90.01839844 38.05347656 -89.09929687 38.04445312 -88.15234375 38.03515625 C-87.44207031 38.02355469 -86.73179687 38.01195312 -86 38 C-84.89771304 33.59085217 -84.92345464 29.51617599 -85 25 C-83.25728062 27.297221 -81.60088848 29.59866729 -80 32 C-76.27698497 32.47730962 -75.20808915 32.1387261 -72 30 C-71.01 32.64 -70.02 35.28 -69 38 C-65.7 38 -62.4 38 -59 38 C-58.67 34.7 -58.34 31.4 -58 28 C-57.01 28.99 -56.02 29.98 -55 31 C-55 31.66 -55 32.32 -55 33 C-54.41734375 33.28617188 -53.8346875 33.57234375 -53.234375 33.8671875 C-51.85221965 34.5679306 -50.48365461 35.29722403 -49.140625 36.0703125 C-44.39689159 38.71661006 -40.4281225 40.08142479 -35 39 C-32.81659895 38.12585559 -30.80775576 37.13055549 -28.76171875 35.97265625 C-27 35 -27 35 -24 34 C-23.67 33.01 -23.34 32.02 -23 31 C-22.67 31 -22.34 31 -22 31 C-21.67 33.31 -21.34 35.62 -21 38 C-19.18757948 38.02687279 -17.37504767 38.04633715 -15.5625 38.0625 C-14.55316406 38.07410156 -13.54382813 38.08570313 -12.50390625 38.09765625 C-10.05978933 38.28612676 -10.05978933 38.28612676 -9 37 C-8.76807135 35.48530552 -8.58784762 33.96245438 -8.4375 32.4375 C-8.35371094 31.61121094 -8.26992187 30.78492188 -8.18359375 29.93359375 C-8.12300781 29.29550781 -8.06242188 28.65742188 -8 28 C-5.5876211 30.32303153 -3.69600602 32.4516482 -1.8125 35.25 C0.61830981 38.18534427 0.61830981 38.18534427 3.2434082 38.26855469 C4.44743286 38.22069824 4.44743286 38.22069824 5.67578125 38.171875 C6.48571533 38.14706055 7.29564941 38.12224609 8.13012695 38.09667969 C9.05571411 38.04882324 9.05571411 38.04882324 10 38 C10.11317227 25.94976471 10.03330247 14.01214121 9 2 C6.03 1.67 3.06 1.34 0 1 C0 0.67 0 0.34 0 0 Z " fill="#043D0D" transform="translate(226,105)"/>
<path d="M0 0 C1.00289062 0.10183594 2.00578125 0.20367187 3.0390625 0.30859375 C3.80992187 0.39238281 4.58078125 0.47617188 5.375 0.5625 C6.38196568 2.66334209 7.3803589 4.76829489 8.375 6.875 C8.931875 8.04675781 9.48875 9.21851562 10.0625 10.42578125 C11.375 13.5625 11.375 13.5625 11.375 16.5625 C12.035 16.5625 12.695 16.5625 13.375 16.5625 C13.55675781 15.99402344 13.73851562 15.42554687 13.92578125 14.83984375 C15.51584634 9.95548997 17.27959778 5.25220973 19.375 0.5625 C22.675 0.5625 25.975 0.5625 29.375 0.5625 C29.375 10.4625 29.375 20.3625 29.375 30.5625 C27.065 30.8925 24.755 31.2225 22.375 31.5625 C22.045 24.9625 21.715 18.3625 21.375 11.5625 C19.23622901 15.78818728 19.23622901 15.78818728 17.12792969 20.02905273 C14.86580657 24.36257355 14.86580657 24.36257355 12.140625 25.47265625 C11.55796875 25.50230469 10.9753125 25.53195313 10.375 25.5625 C9.36966333 23.94079621 8.37088093 22.31502763 7.375 20.6875 C6.818125 19.78257813 6.26125 18.87765625 5.6875 17.9453125 C4.375 15.5625 4.375 15.5625 4.375 13.5625 C5.035 13.5625 5.695 13.5625 6.375 13.5625 C5.54166667 11.39583333 5.54166667 11.39583333 3.375 10.5625 C3.045 17.1625 2.715 23.7625 2.375 30.5625 C0.065 30.5625 -2.245 30.5625 -4.625 30.5625 C-4.955 23.6325 -5.285 16.7025 -5.625 9.5625 C-6.47228203 13.79891013 -6.70884078 17.28662002 -6.625 21.5625 C-7.285 21.5625 -7.945 21.5625 -8.625 21.5625 C-8.769375 20.758125 -8.91375 19.95375 -9.0625 19.125 C-9.36635249 16.64146294 -9.36635249 16.64146294 -10.625 15.5625 C-11.264375 16.3875 -11.90375 17.2125 -12.5625 18.0625 C-16.26690896 21.08650732 -18.04062065 21.0367754 -22.63671875 20.8359375 C-24.625 20.5625 -24.625 20.5625 -26.625 19.5625 C-26.625 23.1925 -26.625 26.8225 -26.625 30.5625 C-29.5 30.6875 -29.5 30.6875 -32.625 30.5625 C-34.625 28.5625 -34.625 28.5625 -34.85205078 25.85693359 C-34.84157715 24.73625488 -34.83110352 23.61557617 -34.8203125 22.4609375 C-34.81386719 21.24921875 -34.80742188 20.0375 -34.80078125 18.7890625 C-34.78402344 17.51804687 -34.76726562 16.24703125 -34.75 14.9375 C-34.73646484 13.019375 -34.73646484 13.019375 -34.72265625 11.0625 C-34.69902303 7.89564833 -34.66607629 4.72916576 -34.625 1.5625 C-29.60131537 -0.94934231 -22.08588958 -0.03587981 -16.625 0.5625 C-13.37204908 2.23030593 -12.00015221 3.71231734 -9.625 6.5625 C-9.33625 5.593125 -9.0475 4.62375 -8.75 3.625 C-6.92522691 -1.34243786 -4.78523741 -0.50078066 0 0 Z " fill="#24956F" transform="translate(137.625,106.4375)"/>
<path d="M0 0 C1.58246707 -0.08153933 3.16616273 -0.13943557 4.75 -0.1875 C6.07257813 -0.23970703 6.07257813 -0.23970703 7.421875 -0.29296875 C10.67100515 0.07625058 11.75117304 0.61199769 14 3 C14.39319785 5.8195443 14.53761512 8.24403488 14.49609375 11.0625 C14.49754898 11.85019775 14.49900421 12.63789551 14.50050354 13.44946289 C14.49884455 15.11380718 14.48728312 16.77816681 14.46655273 18.44238281 C14.43760341 20.99089676 14.4459411 23.53732999 14.45898438 26.0859375 C14.45274667 27.70313512 14.44435547 29.32032616 14.43359375 30.9375 C14.43652939 31.70006104 14.43946503 32.46262207 14.44248962 33.24829102 C14.34874076 38.50209792 14.34874076 38.50209792 12.61694336 40.97460938 C9.1398543 43.17961829 4.91634301 42.69332388 1 42 C-2.0625 39.5625 -2.0625 39.5625 -4 37 C-4.33 36.67 -4.66 36.34 -5 36 C-5.474375 36.804375 -5.94875 37.60875 -6.4375 38.4375 C-8 41 -8 41 -9 42 C-18.68748578 42.97675477 -18.68748578 42.97675477 -22.6875 40 C-23.120625 39.34 -23.55375 38.68 -24 38 C-24.78310547 38.54140625 -24.78310547 38.54140625 -25.58203125 39.09375 C-31.64991864 42.91938829 -36.86184084 44.46551592 -44 43 C-47.59665013 41.33150054 -50.79937608 39.33277578 -54 37 C-54.433125 37.825 -54.86625 38.65 -55.3125 39.5 C-58.9869897 42.91812995 -61.58945058 42.48301132 -66.44140625 42.37109375 C-69 42 -69 42 -72 40 C-72.6875 37.875 -72.6875 37.875 -73 36 C-74.7015625 36.0309375 -74.7015625 36.0309375 -76.4375 36.0625 C-80 36 -80 36 -81 35 C-81.433125 36.175625 -81.433125 36.175625 -81.875 37.375 C-83 40 -83 40 -85 42 C-87.49609375 42.30078125 -87.49609375 42.30078125 -90.4375 42.3125 C-91.88962891 42.33763672 -91.88962891 42.33763672 -93.37109375 42.36328125 C-96 42 -96 42 -97.8046875 40.8046875 C-99.37126111 38.43946852 -99.50457095 36.62960743 -99.6875 33.8125 C-99.75324219 32.91144531 -99.81898437 32.01039063 -99.88671875 31.08203125 C-99.94279297 30.05142578 -99.94279297 30.05142578 -100 29 C-100.58265625 29.48082031 -101.1653125 29.96164063 -101.765625 30.45703125 C-104.74849843 32.51688265 -107.43924385 32.6576196 -111 33 C-111.103125 34.11375 -111.20625 35.2275 -111.3125 36.375 C-111.539375 37.57125 -111.76625 38.7675 -112 40 C-115.45360443 42.30240295 -116.80499384 42.25691777 -120.875 42.265625 C-122.02484375 42.26820313 -123.1746875 42.27078125 -124.359375 42.2734375 C-125.56078125 42.26570313 -126.7621875 42.25796875 -128 42.25 C-129.80210937 42.26160156 -129.80210937 42.26160156 -131.640625 42.2734375 C-133.36539063 42.26957031 -133.36539063 42.26957031 -135.125 42.265625 C-136.70667969 42.26224121 -136.70667969 42.26224121 -138.3203125 42.25878906 C-141 42 -141 42 -144 40 C-144.99 40.99 -144.99 40.99 -146 42 C-148.87779236 42.26069641 -148.87779236 42.26069641 -152.60522461 42.2746582 C-153.28344772 42.27976913 -153.96167084 42.28488007 -154.66044617 42.29014587 C-156.90783453 42.30407348 -159.1549173 42.30308274 -161.40234375 42.30078125 C-162.96171687 42.30466657 -164.52108892 42.3090009 -166.08045959 42.31376648 C-169.35144478 42.32123558 -172.62232205 42.32093255 -175.89331055 42.31567383 C-180.08792198 42.30987946 -184.28209181 42.3268057 -188.47663021 42.3500185 C-191.69794809 42.36474118 -194.91915928 42.36562954 -198.14050484 42.36250877 C-199.68708737 42.36302277 -201.23367576 42.36827516 -202.78022575 42.37832069 C-204.94223699 42.39063936 -207.10338376 42.38392183 -209.26538086 42.37231445 C-211.11165321 42.37325859 -211.11165321 42.37325859 -212.995224 42.3742218 C-216 42 -216 42 -217.89601135 40.61149597 C-219.3534887 38.48401134 -219.40063445 37.06344499 -219.375 34.5 C-219.38273438 33.7265625 -219.39046875 32.953125 -219.3984375 32.15625 C-219 30 -219 30 -216 27 C-216 30.63 -216 34.26 -216 38 C-214.34959717 38 -212.69919434 38 -210.9987793 38 C-189.66585286 38 -168.33292643 38 -147 38 C-146.34 36.35 -145.68 34.7 -145 33 C-144.01 34.98 -144.01 34.98 -143 37 C-142.34 37 -141.68 37 -141 37 C-141 37.66 -141 38.32 -141 39 C-139.54980469 38.89171875 -139.54980469 38.89171875 -138.0703125 38.78125 C-131.2775526 38.29701365 -124.57313235 37.88255756 -117.7578125 38.0625 C-115.97173768 38.19891586 -115.97173768 38.19891586 -115 37 C-114.63239269 34.67182036 -114.29758419 32.3381615 -114 30 C-113.43152344 29.91363281 -112.86304687 29.82726562 -112.27734375 29.73828125 C-106.31815895 28.65388869 -102.70597846 26.80483365 -98 23 C-97.93941406 23.99902344 -97.87882812 24.99804688 -97.81640625 26.02734375 C-97.73261719 27.31769531 -97.64882812 28.60804688 -97.5625 29.9375 C-97.48128906 31.22527344 -97.40007812 32.51304687 -97.31640625 33.83984375 C-97.35080812 36.86023957 -97.35080812 36.86023957 -96 38 C-94.31391034 38.07205511 -92.62499341 38.08386068 -90.9375 38.0625 C-90.01839844 38.05347656 -89.09929687 38.04445312 -88.15234375 38.03515625 C-87.44207031 38.02355469 -86.73179687 38.01195312 -86 38 C-84.89771304 33.59085217 -84.92345464 29.51617599 -85 25 C-83.25728062 27.297221 -81.60088848 29.59866729 -80 32 C-76.27698497 32.47730962 -75.20808915 32.1387261 -72 30 C-71.01 32.64 -70.02 35.28 -69 38 C-65.7 38 -62.4 38 -59 38 C-58.67 34.7 -58.34 31.4 -58 28 C-57.01 28.99 -56.02 29.98 -55 31 C-55 31.66 -55 32.32 -55 33 C-54.41734375 33.28617188 -53.8346875 33.57234375 -53.234375 33.8671875 C-51.85221965 34.5679306 -50.48365461 35.29722403 -49.140625 36.0703125 C-44.39689159 38.71661006 -40.4281225 40.08142479 -35 39 C-32.81659895 38.12585559 -30.80775576 37.13055549 -28.76171875 35.97265625 C-27 35 -27 35 -24 34 C-23.67 33.01 -23.34 32.02 -23 31 C-22.67 31 -22.34 31 -22 31 C-21.67 33.31 -21.34 35.62 -21 38 C-19.18757948 38.02687279 -17.37504767 38.04633715 -15.5625 38.0625 C-14.55316406 38.07410156 -13.54382813 38.08570313 -12.50390625 38.09765625 C-10.05978933 38.28612676 -10.05978933 38.28612676 -9 37 C-8.76807135 35.48530552 -8.58784762 33.96245438 -8.4375 32.4375 C-8.35371094 31.61121094 -8.26992187 30.78492188 -8.18359375 29.93359375 C-8.12300781 29.29550781 -8.06242188 28.65742188 -8 28 C-5.5876211 30.32303153 -3.69600602 32.4516482 -1.8125 35.25 C0.61830981 38.18534427 0.61830981 38.18534427 3.2434082 38.26855469 C4.44743286 38.22069824 4.44743286 38.22069824 5.67578125 38.171875 C6.48571533 38.14706055 7.29564941 38.12224609 8.13012695 38.09667969 C9.05571411 38.04882324 9.05571411 38.04882324 10 38 C10.11317227 25.94976471 10.03330247 14.01214121 9 2 C6.03 1.67 3.06 1.34 0 1 C0 0.67 0 0.34 0 0 Z " fill="#03212B" transform="translate(226,105)"/>
<path d="M0 0 C4.77319241 2.6035595 8.66063294 5.54439882 10.4375 10.875 C10.80576224 16.49099916 10.65306007 20.05165989 7.4375 24.875 C5.53018913 26.85005688 3.70677767 28.26759498 1.4375 29.875 C0.4475 29.875 -0.5425 29.875 -1.5625 29.875 C-1.5625 30.865 -1.5625 31.855 -1.5625 32.875 C-12.17740897 33.49334421 -12.17740897 33.49334421 -17.0625 31.3125 C-21.65645023 26.83339852 -24.15067031 22.2458812 -24.66015625 15.87109375 C-24.48162077 12.22182858 -23.479768 10.00653773 -21.5625 6.875 C-18.875 5.9375 -18.875 5.9375 -16.5625 5.875 C-16.5625 5.215 -16.5625 4.555 -16.5625 3.875 C-15.9025 3.875 -15.2425 3.875 -14.5625 3.875 C-14.459375 3.235625 -14.35625 2.59625 -14.25 1.9375 C-14.023125 1.256875 -13.79625 0.57625 -13.5625 -0.125 C-8.72358533 -1.73797156 -4.85478897 -1.53309125 0 0 Z " fill="#338B41" transform="translate(195.5625,106.125)"/>
<path d="M0 0 C0.71220703 -0.020625 1.42441406 -0.04125 2.15820312 -0.0625 C6.72541059 -0.09629987 9.54428817 0.47550227 13.1875 3.25 C15.58036884 5.64286884 15.50800616 6.34447094 15.5625 9.625 C15.49696237 13.01657221 15.37838515 13.98912363 13.3125 16.8125 C11.1875 18.25 11.1875 18.25 9.1875 18.25 C9.5175 19.57 9.8475 20.89 10.1875 22.25 C10.8475 22.25 11.5075 22.25 12.1875 22.25 C15.1875 28 15.1875 28 15.1875 30.25 C11.2275 30.745 11.2275 30.745 7.1875 31.25 C6.18216333 29.62829621 5.18338093 28.00252763 4.1875 26.375 C3.630625 25.47007812 3.07375 24.56515625 2.5 23.6328125 C1.1875 21.25 1.1875 21.25 1.1875 19.25 C0.1975 19.25 -0.7925 19.25 -1.8125 19.25 C-1.8125 22.88 -1.8125 26.51 -1.8125 30.25 C-4.4525 30.25 -7.0925 30.25 -9.8125 30.25 C-9.8125 20.68 -9.8125 11.11 -9.8125 1.25 C-6.69863918 -0.30693041 -3.41505068 0.02432805 0 0 Z " fill="#078683" transform="translate(80.8125,106.75)"/>
<path d="M0 0 C6.92322039 -0.00746037 6.92322039 -0.00746037 9.69140625 2.58251953 C11.25163987 4.6840483 12.64304867 6.8244859 14 9.0625 C14.48855469 9.82111328 14.97710937 10.57972656 15.48046875 11.36132812 C16.67681634 13.2262229 17.84163911 15.11127553 19 17 C19.33 11.72 19.66 6.44 20 1 C22.64 1 25.28 1 28 1 C28.85803148 11.16437295 29.03351814 20.82382142 28 31 C25.69 31.33 23.38 31.66 21 32 C17.04 26.72 13.08 21.44 9 16 C8.67 20.95 8.34 25.9 8 31 C5.69 31 3.38 31 1 31 C1 23.08 1 15.16 1 7 C1.66 7 2.32 7 3 7 C2.67 6.34 2.34 5.68 2 5 C1.34 5 0.68 5 0 5 C0 3.35 0 1.7 0 0 Z " fill="#55D72F" transform="translate(208,106)"/>
<path d="M0 0 C0.66 0.33 1.32 0.66 2 1 C1.34 1.66 0.68 2.32 0 3 C-0.04401732 5.33291811 -0.03954234 7.66700175 0 10 C-0.33333333 11.66666667 -0.66666667 13.33333333 -1 15 C-1.03824623 17.33301986 -1.04574284 19.66711508 -1 22 C-1.66 22 -2.32 22 -3 22 C-3.144375 21.195625 -3.28875 20.39125 -3.4375 19.5625 C-3.74135249 17.07896294 -3.74135249 17.07896294 -5 16 C-5.639375 16.825 -6.27875 17.65 -6.9375 18.5 C-10.64190896 21.52400732 -12.41562065 21.4742754 -17.01171875 21.2734375 C-19 21 -19 21 -21 20 C-21 23.63 -21 27.26 -21 31 C-23.875 31.125 -23.875 31.125 -27 31 C-29 29 -29 29 -29.22705078 26.29443359 C-29.21657715 25.17375488 -29.20610352 24.05307617 -29.1953125 22.8984375 C-29.18886719 21.68671875 -29.18242188 20.475 -29.17578125 19.2265625 C-29.15902344 17.95554687 -29.14226562 16.68453125 -29.125 15.375 C-29.11146484 13.456875 -29.11146484 13.456875 -29.09765625 11.5 C-29.07402303 8.33314833 -29.04107629 5.16666576 -29 2 C-23.97631537 -0.51184231 -16.46088958 0.40162019 -11 1 C-7.74704908 2.66780593 -6.37515221 4.14981734 -4 7 C-3.71125 6.030625 -3.4225 5.06125 -3.125 4.0625 C-2 1 -2 1 0 0 Z " fill="#027F80" transform="translate(132,106)"/>
<path d="M0 0 C0.33 0 0.66 0 1 0 C1 9.57 1 19.14 1 29 C3.31 29 5.62 29 8 29 C8 22.07 8 15.14 8 8 C10.475 8.495 10.475 8.495 13 9 C12.67 9.99 12.34 10.98 12 12 C11.34 12 10.68 12 10 12 C10.433125 12.69867188 10.86625 13.39734375 11.3125 14.1171875 C11.869375 15.02726562 12.42625 15.93734375 13 16.875 C13.556875 17.77992187 14.11375 18.68484375 14.6875 19.6171875 C16 22 16 22 16 24 C19.16115776 22.63016497 19.9927092 22.0109362 22 19 C23.65 18.67 25.3 18.34 27 18 C27.495 25.425 27.495 25.425 28 33 C27.34 33 26.68 33 26 33 C26 33.66 26 34.32 26 35 C27.32 34.34 28.64 33.68 30 33 C30 32.34 30 31.68 30 31 C31.98 31 33.96 31 36 31 C35.67 32.65 35.34 34.3 35 36 C33.37536158 36.05395478 31.75021459 36.09277195 30.125 36.125 C28.76761719 36.15980469 28.76761719 36.15980469 27.3828125 36.1953125 C25 36 25 36 23 34 C22.28591666 32.01643517 21.61382258 30.01684563 21 28 C20.34 28.66 19.68 29.32 19 30 C16.625 30.5 16.625 30.5 14 30 C11.6875 27 11.6875 27 10 24 C10.02320313 24.69867188 10.04640625 25.39734375 10.0703125 26.1171875 C10.08835938 27.02726562 10.10640625 27.93734375 10.125 28.875 C10.14820313 29.77992188 10.17140625 30.68484375 10.1953125 31.6171875 C10 34 10 34 8 36 C5.6875 36.265625 5.6875 36.265625 3 36.25 C1.6696875 36.25773437 1.6696875 36.25773437 0.3125 36.265625 C-2 36 -2 36 -4 34 C-4.4140625 30.9609375 -4.4140625 30.9609375 -4.625 27.375 C-4.69976562 26.18648437 -4.77453125 24.99796875 -4.8515625 23.7734375 C-4.90054688 22.85820312 -4.94953125 21.94296875 -5 21 C-5.804375 21.804375 -6.60875 22.60875 -7.4375 23.4375 C-11.26663263 26.68813058 -15.1211256 26.88073863 -20 27 C-19.95875 28.11375 -19.9175 29.2275 -19.875 30.375 C-20 34 -20 34 -22 36 C-24.625 36.125 -24.625 36.125 -27 36 C-26.01 35.01 -25.02 34.02 -24 33 C-24.33 32.34 -24.66 31.68 -25 31 C-23.68 31 -22.36 31 -21 31 C-21 26.71 -21 22.42 -21 18 C-18.463125 18.1546875 -18.463125 18.1546875 -15.875 18.3125 C-11.82204258 18.33864811 -9.43179998 18.16831685 -6.3125 15.5 C-5.549375 14.675 -4.78625 13.85 -4 13 C-2.9375 15.375 -2.9375 15.375 -2 18 C-2.33 18.66 -2.66 19.32 -3 20 C-2.34 20 -1.68 20 -1 20 C-1.12568359 19.09507813 -1.12568359 19.09507813 -1.25390625 18.171875 C-1.35574219 17.37265625 -1.45757812 16.5734375 -1.5625 15.75 C-1.66691406 14.96109375 -1.77132812 14.1721875 -1.87890625 13.359375 C-2.00146498 10.97145659 -1.63352924 9.28539809 -1 7 C-1 5.948125 -1 4.89625 -1 3.8125 C-1 1 -1 1 0 0 Z " fill="#0B480E" transform="translate(132,108)"/>
<path d="M0 0 C0.66 0 1.32 0 2 0 C2 0.66 2 1.32 2 2 C2.66 1.67 3.32 1.34 4 1 C5.62359433 0.92928596 7.25001132 0.91580134 8.875 0.9375 C9.73867188 0.94652344 10.60234375 0.95554687 11.4921875 0.96484375 C12.31976563 0.97644531 13.14734375 0.98804687 14 1 C15.32 1 16.64 1 18 1 C21.66666667 1 25.33333333 1 29 1 C27.81547551 8.61480032 22.88813548 13.31024516 18 19 C17.47277344 19.76957031 16.94554688 20.53914063 16.40234375 21.33203125 C15.93957031 21.88246094 15.47679688 22.43289062 15 23 C14.01 23 13.02 23 12 23 C12.66 24.32 13.32 25.64 14 27 C14.99 26.67 15.98 26.34 17 26 C19.06145107 25.931009 21.12501401 25.91532273 23.1875 25.9375 C24.81751953 25.95103516 24.81751953 25.95103516 26.48046875 25.96484375 C27.31191406 25.97644531 28.14335938 25.98804688 29 26 C29 27.65 29 29.3 29 31 C21.08 31 13.16 31 5 31 C5.33 28.69 5.66 26.38 6 24 C6 23.67 6 23.34 6 23 C5.34 23 4.68 23 4 23 C4 21.02 4 19.04 4 17 C5.65 17 7.3 17 9 17 C9.33 16.01 9.66 15.02 10 14 C6.7 13.34 3.4 12.68 0 12 C-0.125 6.25 -0.125 6.25 1 4 C0.34 3.67 -0.32 3.34 -1 3 C-0.67 2.01 -0.34 1.02 0 0 Z " fill="#175E15" transform="translate(9,106)"/>
<path d="M0 0 C1.04537434 3.13612302 0.91893464 4.02049971 0.3125 7.125 C-0.36148473 12.56121897 1.02274272 16.45672359 4 21 C9.04404563 26.04404563 15.2289873 25.78087338 22 26 C22 25.01 22 24.02 22 23 C22.9075 22.608125 23.815 22.21625 24.75 21.8125 C31.0241663 18.31344572 32.79442217 13.50645461 35 7 C35.33 7 35.66 7 36 7 C36.495 15.91 36.495 15.91 37 25 C39.64 25.33 42.28 25.66 45 26 C45 20.72 45 15.44 45 10 C49.0191296 14.0191296 51.88242039 17.55892536 54.9609375 22.20703125 C57.42359251 24.77039196 57.42359251 24.77039196 64 24 C64 19.38 64 14.76 64 10 C64.33 10 64.66 10 65 10 C65.02888146 13.31248187 65.04675799 16.62493167 65.0625 19.9375 C65.07087891 20.88302734 65.07925781 21.82855469 65.08789062 22.80273438 C65.09111328 23.70185547 65.09433594 24.60097656 65.09765625 25.52734375 C65.10289307 26.35999756 65.10812988 27.19265137 65.11352539 28.05053711 C65 30 65 30 64 31 C60.87089189 31.65133795 58.11928269 31.71713412 55 31 C51.59338286 28.24076582 48.96047144 24.92094288 47 21 C46.814375 22.918125 46.814375 22.918125 46.625 24.875 C46.25 28.75 46.25 28.75 44 31 C41.3984375 31.1953125 41.3984375 31.1953125 38.375 31.125 C36.87066406 31.09792969 36.87066406 31.09792969 35.3359375 31.0703125 C34.56507813 31.04710937 33.79421875 31.02390625 33 31 C32.34 28.69 31.68 26.38 31 24 C30.319375 24.763125 29.63875 25.52625 28.9375 26.3125 C24.70686753 30.18307864 20.61682183 32.13948842 14.875 32.3125 C8.76978417 31.82014388 8.76978417 31.82014388 6 30 C4.32811545 26.71594107 3.16288531 23.48865594 2 20 C-0.00016466 18.79117904 -0.00016466 18.79117904 -2 18 C-2 17.01 -2 16.02 -2 15 C-2.30050829 13.59673361 -2.63590136 12.20062607 -3 10.8125 C-3.33 9.554375 -3.66 8.29625 -4 7 C-3.34 7 -2.68 7 -2 7 C-2.33 6.01 -2.66 5.02 -3 4 C-2.34 4 -1.68 4 -1 4 C-0.67 2.68 -0.34 1.36 0 0 Z " fill="#04360B" transform="translate(172,113)"/>
<path d="M0 0 C7.33333333 0 14.66666667 0 22 0 C22 1.65 22 3.3 22 5 C17.71 5 13.42 5 9 5 C9 5.99 9 6.98 9 8 C9.66 8.33 10.32 8.66 11 9 C10.67 9.99 10.34 10.98 10 12 C13.63 12.33 17.26 12.66 21 13 C21 14.32 21 15.64 21 17 C17.04 17 13.08 17 9 17 C9 19.64 9 22.28 9 25 C13.61073111 26.29676812 17.33840089 25.71109139 22 25 C22 26.65 22 28.3 22 30 C20 30 18 30 16 30 C16 30.66 16 31.32 16 32 C13.87561661 32.08078641 11.7503677 32.13909141 9.625 32.1875 C8.44164062 32.22230469 7.25828125 32.25710937 6.0390625 32.29296875 C4.53472656 32.14794922 4.53472656 32.14794922 3 32 C0.42471752 28.13707629 0.70545529 24.91053122 0.75 20.4375 C0.74226563 19.65697266 0.73453125 18.87644531 0.7265625 18.07226562 C0.74664502 12.25335498 0.74664502 12.25335498 3 10 C2.01 9.67 1.02 9.34 0 9 C0 6.03 0 3.06 0 0 Z " fill="#52D633" transform="translate(43,107)"/>
<path d="M0 0 C1.33332095 2.6666419 0.67102033 4.16680303 0 7 C1.98 7 3.96 7 6 7 C6.433125 8.11375 6.86625 9.2275 7.3125 10.375 C8.69911119 14.17512334 8.69911119 14.17512334 12 16 C17.48585509 16.52677769 17.48585509 16.52677769 22.5 14.6875 C24.91756131 10.35603598 24.30103515 5.85001072 24 1 C25.5 2.3125 25.5 2.3125 27 4 C27 4.99 27 5.98 27 7 C28.98 7 30.96 7 33 7 C32.74895369 12.14644943 30.99451439 14.8994335 27.6328125 18.5859375 C25.52212203 20.41385605 23.77537132 20.91837143 21 21 C21 21.99 21 22.98 21 24 C10.38509103 24.61834421 10.38509103 24.61834421 5.5 22.4375 C0.11625649 17.18835008 -1.76242924 12.36469361 -2 5 C-1.0625 2 -1.0625 2 0 0 Z " fill="#5ADC2E" transform="translate(173,115)"/>
<path d="M0 0 C0.33 0 0.66 0 1 0 C1 4.62 1 9.24 1 14 C4.4340625 13.7834375 4.4340625 13.7834375 7.9375 13.5625 C9.22527344 13.48128906 10.51304688 13.40007812 11.83984375 13.31640625 C14.86023957 13.35080812 14.86023957 13.35080812 16 12 C16.34229288 8.83379087 16.25632099 7.39516153 14.5 4.6875 C14.005 4.130625 13.51 3.57375 13 3 C14.875 3.3125 14.875 3.3125 17 4 C19 7 19 7 18.625 10.1875 C18.315625 11.5796875 18.315625 11.5796875 18 13 C20.475 13.495 20.475 13.495 23 14 C22.01 15.485 22.01 15.485 21 17 C20.34 17 19.68 17 19 17 C19.33 18.32 19.66 19.64 20 21 C20.66 21 21.32 21 22 21 C25 26.75 25 26.75 25 29 C21.04 29.495 21.04 29.495 17 30 C15.99466333 28.37829621 14.99588093 26.75252763 14 25.125 C13.443125 24.22007812 12.88625 23.31515625 12.3125 22.3828125 C11 20 11 20 11 18 C10.01 18 9.02 18 8 18 C8 21.63 8 25.26 8 29 C5.36 29 2.72 29 0 29 C0 19.43 0 9.86 0 0 Z " fill="#4CD436" transform="translate(71,108)"/>
<path d="M0 0 C6.97959637 0.11930934 6.97959637 0.11930934 9.59765625 2.37890625 C11.02285903 4.19390808 12.27565447 6.04412726 13.5 8 C13.94085938 8.65484375 14.38171875 9.3096875 14.8359375 9.984375 C18 14.74029503 18 14.74029503 18 16 C15.69 16 13.38 16 11 16 C10.67 15.01 10.34 14.02 10 13 C9.34 13 8.68 13 8 13 C8 18.94 8 24.88 8 31 C5.69 31 3.38 31 1 31 C1 23.08 1 15.16 1 7 C1.66 7 2.32 7 3 7 C2.67 6.34 2.34 5.68 2 5 C1.34 5 0.68 5 0 5 C0 3.35 0 1.7 0 0 Z " fill="#249259" transform="translate(208,106)"/>
<path d="M0 0 C3.88681032 2.12007836 6.98472952 4.13783957 9.4375 7.875 C10.19643105 10.64609693 10.33740835 12.97234227 10.4375 15.875 C8.4575 15.875 6.4775 15.875 4.4375 15.875 C3.7775 14.225 3.1175 12.575 2.4375 10.875 C0.7875 10.875 -0.8625 10.875 -2.5625 10.875 C-3.125 8.9375 -3.125 8.9375 -3.5625 6.875 C-3.2325 6.545 -2.9025 6.215 -2.5625 5.875 C-5.61525741 5.58146563 -8.51779165 5.45504023 -11.5625 5.875 C-14.92821246 8.81999841 -16.05912276 11.47044915 -16.5625 15.875 C-18.5425 15.875 -20.5225 15.875 -22.5625 15.875 C-22.2325 12.905 -21.9025 9.935 -21.5625 6.875 C-19.9125 6.545 -18.2625 6.215 -16.5625 5.875 C-16.5625 5.215 -16.5625 4.555 -16.5625 3.875 C-15.9025 3.875 -15.2425 3.875 -14.5625 3.875 C-14.459375 3.235625 -14.35625 2.59625 -14.25 1.9375 C-14.023125 1.256875 -13.79625 0.57625 -13.5625 -0.125 C-8.72358533 -1.73797156 -4.85478897 -1.53309125 0 0 Z " fill="#149181" transform="translate(195.5625,106.125)"/>
<path d="M0 0 C2.31 0 4.62 0 7 0 C7 9.9 7 19.8 7 30 C4.69 30.33 2.38 30.66 0 31 C-0.33 24.4 -0.66 17.8 -1 11 C-1.66 12.32 -2.32 13.64 -3 15 C-4.32 15 -5.64 15 -7 15 C-6.54554036 13.58208592 -6.08625056 12.16571954 -5.625 10.75 C-5.24214844 9.56664063 -5.24214844 9.56664063 -4.8515625 8.359375 C-4.04826333 6.13372042 -3.10288338 4.09068328 -2 2 C-1.34 2 -0.68 2 0 2 C0 1.34 0 0.68 0 0 Z " fill="#37A16B" transform="translate(160,107)"/>
<path d="M0 0 C3 2 3 2 4 5 C3.72428861 7.00875442 3.39764263 9.01178687 3 11 C4.32 11.33 5.64 11.66 7 12 C7.33 11.34 7.66 10.68 8 10 C8 10.66 8 11.32 8 12 C9.98 12 11.96 12 14 12 C13.01 13.32 12.02 14.64 11 16 C9.68 15.67 8.36 15.34 7 15 C7 15.99 7 16.98 7 18 C7.66 18.33 8.32 18.66 9 19 C8.34 19 7.68 19 7 19 C7 19.99 7 20.98 7 22 C8.32 21.34 9.64 20.68 11 20 C10.01 23.3 9.02 26.6 8 30 C15.92 30 23.84 30 32 30 C32 30.66 32 31.32 32 32 C30.02 32 28.04 32 26 32 C25.67 33.32 25.34 34.64 25 36 C21.37 36 17.74 36 14 36 C13.67 35.34 13.34 34.68 13 34 C10.02934491 34.34227572 10.02934491 34.34227572 7 35 C6.67 35.66 6.34 36.32 6 37 C5.01 36.67 4.02 36.34 3 36 C2.94552953 34.58376784 2.90699492 33.16691809 2.875 31.75 C2.85179687 30.96109375 2.82859375 30.1721875 2.8046875 29.359375 C3.01974373 26.76149576 3.84622256 25.30755487 5 23 C5.23979762 20.63777768 5.23979762 20.63777768 5.125 18.25 C5.10695313 17.45078125 5.08890625 16.6515625 5.0703125 15.828125 C5.04710937 15.22484375 5.02390625 14.6215625 5 14 C4.01 13.67 3.02 13.34 2 13 C1.26953125 11.07421875 1.26953125 11.07421875 0.8125 8.6875 C0.65394531 7.90761719 0.49539062 7.12773438 0.33203125 6.32421875 C0 4 0 4 0 0 Z " fill="#154D0C" transform="translate(6,107)"/>
<path d="M0 0 C0.33 0.66 0.66 1.32 1 2 C0.67 2.66 0.34 3.32 0 4 C1.65 3.34 3.3 2.68 5 2 C3.6017971 6.02073891 1.70820245 8.98689637 -0.9375 12.3125 C-1.62714844 13.19550781 -2.31679688 14.07851562 -3.02734375 14.98828125 C-4.00380859 15.98408203 -4.00380859 15.98408203 -5 17 C-5.99 17 -6.98 17 -8 17 C-7.34 18.32 -6.68 19.64 -6 21 C-5.01 20.67 -4.02 20.34 -3 20 C-0.93854893 19.931009 1.12501401 19.91532273 3.1875 19.9375 C4.81751953 19.95103516 4.81751953 19.95103516 6.48046875 19.96484375 C7.31191406 19.97644531 8.14335938 19.98804688 9 20 C9 21.65 9 23.3 9 25 C1.08 25 -6.84 25 -15 25 C-13.8776838 17.1437866 -13.8776838 17.1437866 -10.3125 13.0625 C-9.59707031 12.22074219 -8.88164062 11.37898438 -8.14453125 10.51171875 C-7.43683594 9.68285156 -6.72914062 8.85398437 -6 8 C-4.81990017 6.46859162 -3.65163829 4.92792514 -2.5 3.375 C-2.0153125 2.72273438 -1.530625 2.07046875 -1.03125 1.3984375 C-0.6909375 0.93695313 -0.350625 0.47546875 0 0 Z " fill="#69E327" transform="translate(29,112)"/>
<path d="M0 0 C2.475 0.495 2.475 0.495 5 1 C4.67 1.99 4.34 2.98 4 4 C3.34 4 2.68 4 2 4 C2.6496875 5.04800781 2.6496875 5.04800781 3.3125 6.1171875 C3.869375 7.02726562 4.42625 7.93734375 5 8.875 C5.556875 9.77992187 6.11375 10.68484375 6.6875 11.6171875 C8 14 8 14 8 16 C11.16115776 14.63016497 11.9927092 14.0109362 14 11 C15.65 10.67 17.3 10.34 19 10 C19.33 14.95 19.66 19.9 20 25 C19.34 25 18.68 25 18 25 C18 25.66 18 26.32 18 27 C19.32 26.34 20.64 25.68 22 25 C22 24.34 22 23.68 22 23 C23.98 23 25.96 23 28 23 C27.67 24.65 27.34 26.3 27 28 C25.37536158 28.05395478 23.75021459 28.09277195 22.125 28.125 C20.76761719 28.15980469 20.76761719 28.15980469 19.3828125 28.1953125 C17 28 17 28 15 26 C14.28591666 24.01643517 13.61382258 22.01684563 13 20 C12.34 20.66 11.68 21.32 11 22 C8.6875 22.625 8.6875 22.625 6 22 C1.35278728 17.7022991 0.62608613 12.59078768 0.1875 6.5 C0.10331984 4.33406732 0.03348371 2.16730928 0 0 Z " fill="#033E0B" transform="translate(140,116)"/>
<path d="M0 0 C7.33333333 0 14.66666667 0 22 0 C22 1.65 22 3.3 22 5 C17.71 5 13.42 5 9 5 C9 5.99 9 6.98 9 8 C9.66 8.33 10.32 8.66 11 9 C10.67 9.99 10.34 10.98 10 12 C13.63 12.33 17.26 12.66 21 13 C21 13.66 21 14.32 21 15 C14.73 15 8.46 15 2 15 C1.67 14.01 1.34 13.02 1 12 C1.66 11.34 2.32 10.68 3 10 C2.01 9.67 1.02 9.34 0 9 C0 6.03 0 3.06 0 0 Z " fill="#2FA859" transform="translate(43,107)"/>
<path d="M0 0 C0.33 0 0.66 0 1 0 C1 4.62 1 9.24 1 14 C5.62 14 10.24 14 15 14 C15.66 12.35 16.32 10.7 17 9 C17.33 10.32 17.66 11.64 18 13 C20.475 13.495 20.475 13.495 23 14 C21.25 17.875 21.25 17.875 19 19 C17.50243129 19.09499503 16.00057068 19.12987198 14.5 19.125 C13.7059375 19.12757812 12.911875 19.13015625 12.09375 19.1328125 C10 19 10 19 8 18 C8 21.63 8 25.26 8 29 C5.125 29.125 5.125 29.125 2 29 C0 27 0 27 -0.22705078 24.29443359 C-0.21657715 23.17375488 -0.20610352 22.05307617 -0.1953125 20.8984375 C-0.18886719 19.68671875 -0.18242188 18.475 -0.17578125 17.2265625 C-0.15902344 15.95554687 -0.14226562 14.68453125 -0.125 13.375 C-0.11146484 11.456875 -0.11146484 11.456875 -0.09765625 9.5 C-0.07402303 6.33314833 -0.04107629 3.16666576 0 0 Z " fill="#5ADE32" transform="translate(103,108)"/>
<path d="M0 0 C0.33 0 0.66 0 1 0 C1 7.26 1 14.52 1 22 C1.66 22 2.32 22 3 22 C3.33 22.99 3.66 23.98 4 25 C3.67 25.66 3.34 26.32 3 27 C-3.27 27 -9.54 27 -16 27 C-16 26.34 -16 25.68 -16 25 C-16.66 25 -17.32 25 -18 25 C-18.33 24.34 -18.66 23.68 -19 23 C-19.66 23.66 -20.32 24.32 -21 25 C-23.625 24.625 -23.625 24.625 -26 24 C-26 24.66 -26 25.32 -26 26 C-26.66 26 -27.32 26 -28 26 C-28 25.01 -28 24.02 -28 23 C-24.535 22.505 -24.535 22.505 -21 22 C-21 20.02 -21 18.04 -21 16 C-20.34 16.66 -19.68 17.32 -19 18 C-18.67 17.01 -18.34 16.02 -18 15 C-17.34 15 -16.68 15 -16 15 C-13 19.38461538 -13 19.38461538 -13 22 C-11.82630859 21.89171875 -11.82630859 21.89171875 -10.62890625 21.78125 C-9.61699219 21.6884375 -8.60507813 21.595625 -7.5625 21.5 C-6.04849609 21.36078125 -6.04849609 21.36078125 -4.50390625 21.21875 C-2 21 -2 21 -1 21 C-1.01160156 20.32195312 -1.02320312 19.64390625 -1.03515625 18.9453125 C-1.09708351 12.55795793 -0.77018868 6.34030324 0 0 Z " fill="#03360C" transform="translate(101,117)"/>
<path d="M0 0 C1.5 1.3125 1.5 1.3125 3 3 C3 3.99 3 4.98 3 6 C4.98 6 6.96 6 9 6 C8.75044574 11.11586237 7.05100757 13.88819402 3.66015625 17.51953125 C-0.68355971 21.39310384 -6.02442199 21.41994831 -11.5859375 21.3359375 C-15.25730867 20.82503472 -17.19382323 19.36309623 -20 17 C-17 17 -17 17 -14.625 18.0625 C-11.49573107 19.18009605 -10.11162853 19.11699486 -7 18 C-4.83333333 16.16666667 -4.83333333 16.16666667 -3 14 C-2.47019531 13.57847656 -1.94039062 13.15695313 -1.39453125 12.72265625 C0.60347043 10.25453652 0.29774048 8.43598036 0.1875 5.3125 C0.16042969 4.31863281 0.13335937 3.32476562 0.10546875 2.30078125 C0.05326172 1.16189453 0.05326172 1.16189453 0 0 Z " fill="#53D630" transform="translate(197,116)"/>
<path d="M0 0 C5.94 0.99 5.94 0.99 12 2 C12 2.33 12 2.66 12 3 C9.69 3 7.38 3 5 3 C5 8.61 5 14.22 5 20 C1.85092269 16.85092269 -0.65258367 13.94404244 -3.25 10.375 C-3.95640625 9.41335937 -4.6628125 8.45171875 -5.390625 7.4609375 C-7 5 -7 5 -7 3 C-9.64 2.67 -12.28 2.34 -15 2 C-15 3.65 -15 5.3 -15 7 C-14.01 6.67 -13.02 6.34 -12 6 C-12 6.99 -12 7.98 -12 9 C-12.99 9.33 -13.98 9.66 -15 10 C-16.5625 8.3125 -16.5625 8.3125 -18 6 C-17.6875 3.25 -17.6875 3.25 -17 1 C-9.00348432 0.3728223 -9.00348432 0.3728223 -5 2.875 C-3 5 -3 5 -2 7 C-0.49069817 3.6136749 -0.49069817 3.6136749 0 0 Z M-1 8 C0 10 0 10 0 10 Z " fill="#042520" transform="translate(223,104)"/>
<path d="M0 0 C7.66666667 0 15.33333333 0 23 0 C21.53218884 6.60515021 21.53218884 6.60515021 19.0625 8.4375 C17 9 17 9 14 9 C14.33 7.68 14.66 6.36 15 5 C10.05 5 5.1 5 0 5 C0 3.35 0 1.7 0 0 Z " fill="#04817E" transform="translate(15,107)"/>
<path d="M0 0 C0.33 0 0.66 0 1 0 C1 4.95 1 9.9 1 15 C2.98 15 4.96 15 7 15 C7 19.95 7 24.9 7 30 C4.69 30 2.38 30 0 30 C0 20.1 0 10.2 0 0 Z " fill="#5CDD22" transform="translate(133,107)"/>
<path d="M0 0 C0.33 0 0.66 0 1 0 C1 2.64 1 5.28 1 8 C2.98 8 4.96 8 7 8 C7 12.95 7 17.9 7 23 C4.69 23 2.38 23 0 23 C0 15.41 0 7.82 0 0 Z " fill="#57DB31" transform="translate(209,114)"/>
<path d="M0 0 C0.33 0 0.66 0 1 0 C1 2.31 1 4.62 1 7 C2.98 7 4.96 7 7 7 C7 11.95 7 16.9 7 22 C4.69 22.33 2.38 22.66 0 23 C0 15.41 0 7.82 0 0 Z " fill="#54DA32" transform="translate(160,115)"/>
<path d="M0 0 C0.763125 0.165 1.52625 0.33 2.3125 0.5 C5.57274174 0.94206668 8.29969112 0.90873124 11.5625 0.75 C15.52661675 0.72306986 16.6722922 0.77929883 20.0625 3.0625 C22.2969568 6.45022482 23.14921429 9.05544806 24 13 C23.01 12.67 22.02 12.34 21 12 C19.66140666 9.0859429 18.91238901 6.0847438 18 3 C13.71 3 9.42 3 5 3 C4.67 4.98 4.34 6.96 4 9 C3.34 9.66 2.68 10.32 2 11 C1.566875 10.21625 1.13375 9.4325 0.6875 8.625 C-0.89220247 5.78301625 -0.89220247 5.78301625 -4 4 C-6.57713254 3.5437208 -9.09298285 3.17054724 -11.6875 2.875 C-12.7403418 2.74544922 -12.7403418 2.74544922 -13.81445312 2.61328125 C-15.54211145 2.40173125 -17.2709566 2.199914 -19 2 C-19 1.67 -19 1.34 -19 1 C-11.56621057 0.66547948 -5.80122845 0.86097148 1 4 C0.67 2.68 0.34 1.36 0 0 Z " fill="#072A21" transform="translate(125,104)"/>
<path d="M0 0 C0.66 0 1.32 0 2 0 C1.690625 0.886875 1.38125 1.77375 1.0625 2.6875 C0.1709329 5.46709155 -0.49377007 8.13136375 -1 11 C-1.66 11 -2.32 11 -3 11 C-3.33 12.32 -3.66 13.64 -4 15 C-3.01 15 -2.02 15 -1 15 C-2.19913678 19.39683488 -3.4288115 22.09840934 -7 25 C-7.66 25 -8.32 25 -9 25 C-10.54296875 22.8828125 -10.54296875 22.8828125 -12.1875 20.125 C-13.01314453 18.76761719 -13.01314453 18.76761719 -13.85546875 17.3828125 C-14.42201172 16.20332031 -14.42201172 16.20332031 -15 15 C-14.67 14.34 -14.34 13.68 -14 13 C-11.36 13.99 -8.72 14.98 -6 16 C-5.566875 14.659375 -5.13375 13.31875 -4.6875 11.9375 C-3.32851036 7.84758831 -1.75751346 3.93348251 0 0 Z " fill="#4FD633" transform="translate(157,107)"/>
<path d="M0 0 C1.58246707 -0.08153933 3.16616273 -0.13943557 4.75 -0.1875 C6.07257813 -0.23970703 6.07257813 -0.23970703 7.421875 -0.29296875 C10.59001415 0.06704706 11.73976965 0.76583101 14 3 C14.45410156 5.63549805 14.45410156 5.63549805 14.390625 8.76171875 C14.37773437 9.87998047 14.36484375 10.99824219 14.3515625 12.15039062 C14.31804687 13.31763672 14.28453125 14.48488281 14.25 15.6875 C14.23195312 16.86634766 14.21390625 18.04519531 14.1953125 19.25976562 C14.14811859 22.17398926 14.08229077 25.08659031 14 28 C13.67 28 13.34 28 13 28 C12.67 30.97 12.34 33.94 12 37 C11.67 37 11.34 37 11 37 C10.34 25.45 9.68 13.9 9 2 C6.03 1.67 3.06 1.34 0 1 C0 0.67 0 0.34 0 0 Z " fill="#073222" transform="translate(226,105)"/>
<path d="M0 0 C0.33 0.66 0.66 1.32 1 2 C0.67 2.66 0.34 3.32 0 4 C1.65 3.34 3.3 2.68 5 2 C3.60831178 5.98854975 1.74657032 8.94583212 -0.875 12.25 C-1.55304687 13.12140625 -2.23109375 13.9928125 -2.9296875 14.890625 C-5.0417042 17.04249107 -6.05870927 17.65706924 -9 18 C-9.66 16.68 -10.32 15.36 -11 14 C-10.45730469 13.32453125 -9.91460938 12.6490625 -9.35546875 11.953125 C-8.64003906 11.06109375 -7.92460937 10.1690625 -7.1875 9.25 C-6.47980469 8.36828125 -5.77210937 7.4865625 -5.04296875 6.578125 C-3.32494998 4.41007071 -1.64626024 2.22271099 0 0 Z " fill="#47D13A" transform="translate(29,112)"/>
<path d="M0 0 C4.62 0 9.24 0 14 0 C13.67 0.66 13.34 1.32 13 2 C10.69 2 8.38 2 6 2 C6 5.63 6 9.26 6 13 C3.69 13 1.38 13 -1 13 C-1.0272415 11.58344207 -1.04650467 10.16672955 -1.0625 8.75 C-1.07410156 7.96109375 -1.08570312 7.1721875 -1.09765625 6.359375 C-1 4 -1 4 0 0 Z " fill="#0B8983" transform="translate(105,109)"/>
<path d="M0 0 C6.66666667 0 13.33333333 0 20 0 C20 1.65 20 3.3 20 5 C13.4 5.33 6.8 5.66 0 6 C0 4.02 0 2.04 0 0 Z " fill="#068382" transform="translate(45,107)"/>
<path d="M0 0 C0.33 0 0.66 0 1 0 C1.02888146 3.31248187 1.04675799 6.62493167 1.0625 9.9375 C1.07087891 10.88302734 1.07925781 11.82855469 1.08789062 12.80273438 C1.09272461 14.15141602 1.09272461 14.15141602 1.09765625 15.52734375 C1.10551147 16.77632446 1.10551147 16.77632446 1.11352539 18.05053711 C1 20 1 20 0 21 C-3.1014212 21.57457908 -5.90959778 21.65275822 -9 21 C-11.49490068 18.97983751 -13.2555282 16.68169783 -15 14 C-14.67 13.34 -14.34 12.68 -14 12 C-13.34 12 -12.68 12 -12 12 C-12 12.66 -12 13.32 -12 14 C-11.01 14 -10.02 14 -9 14 C-9 14.99 -9 15.98 -9 17 C-8.62875 16.505 -8.2575 16.01 -7.875 15.5 C-6 14 -6 14 0 14 C0 9.38 0 4.76 0 0 Z " fill="#0A4D10" transform="translate(236,123)"/>
<path d="M0 0 C3 2 3 2 4 5 C3.72428861 7.00875442 3.39764263 9.01178687 3 11 C4.32 11.33 5.64 11.66 7 12 C7.33 11.34 7.66 10.68 8 10 C8 10.66 8 11.32 8 12 C9.98 12 11.96 12 14 12 C13.01 13.32 12.02 14.64 11 16 C9.68 15.67 8.36 15.34 7 15 C7 15.99 7 16.98 7 18 C7.66 18.33 8.32 18.66 9 19 C8.34 19 7.68 19 7 19 C7 19.99 7 20.98 7 22 C8.32 21.34 9.64 20.68 11 20 C9.66666667 23.33333333 8.33333333 26.66666667 7 30 C6.34 30 5.68 30 5 30 C5 24.72 5 19.44 5 14 C4.01 13.67 3.02 13.34 2 13 C1.26953125 11.07421875 1.26953125 11.07421875 0.8125 8.6875 C0.65394531 7.90761719 0.49539062 7.12773438 0.33203125 6.32421875 C0 4 0 4 0 0 Z " fill="#031E29" transform="translate(6,107)"/>
<path d="M0 0 C0.66 0 1.32 0 2 0 C1.773125 0.763125 1.54625 1.52625 1.3125 2.3125 C1.209375 3.199375 1.10625 4.08625 1 5 C1.48251221 5.44061768 1.96502441 5.88123535 2.4621582 6.33520508 C4.61425135 8.66495951 4.34483 10.19525682 4.29296875 13.32421875 C4.28330078 14.35224609 4.27363281 15.38027344 4.26367188 16.43945312 C4.23853516 17.51130859 4.21339844 18.58316406 4.1875 19.6875 C4.17396484 20.77095703 4.16042969 21.85441406 4.14648438 22.97070312 C4.11110643 25.64763405 4.06174189 28.32356838 4 31 C6.31 31 8.62 31 11 31 C11 25.72 11 20.44 11 15 C11.66 15.66 12.32 16.32 13 17 C12.98252073 19.75589777 12.86136729 22.38786676 12.625 25.125 C12.56828125 25.87910156 12.5115625 26.63320312 12.453125 27.41015625 C12.3115535 29.27418096 12.15700041 31.13721137 12 33 C5.84765625 33.09765625 5.84765625 33.09765625 4 33 C2.00383446 31.00383446 2.59016573 27.18298037 2.4375 24.4375 C2.37272461 23.37112305 2.37272461 23.37112305 2.30664062 22.28320312 C2.20028223 20.52238088 2.09961154 18.7612168 2 17 C1.67 17 1.34 17 1 17 C-2.15727003 4.31454006 -2.15727003 4.31454006 0 0 Z " fill="#2F7D11" transform="translate(205,106)"/>
<path d="M0 0 C2.43833046 0.08392804 3.81821186 0.1864158 6 1.3125 C7.70550706 4.52286623 7.76684404 7.70549727 8.0625 11.3125 C6.0825 11.3125 4.1025 11.3125 2.0625 11.3125 C1.4025 9.6625 0.7425 8.0125 0.0625 6.3125 C-1.5875 6.3125 -3.2375 6.3125 -4.9375 6.3125 C-5.5625 4.4375 -5.5625 4.4375 -5.9375 2.3125 C-3.9375 0.3125 -3.9375 0.3125 0 0 Z " fill="#29935A" transform="translate(197.9375,110.6875)"/>
<path d="M0 0 C1.98 0 3.96 0 6 0 C6 4.95 6 9.9 6 15 C4.02 15 2.04 15 0 15 C0 10.05 0 5.1 0 0 Z " fill="#39A16C" transform="translate(230,107)"/>
<path d="M0 0 C0.33 4.95 0.66 9.9 1 15 C0.34 15 -0.32 15 -1 15 C-1 15.66 -1 16.32 -1 17 C0.32 16.34 1.64 15.68 3 15 C3 14.34 3 13.68 3 13 C4.98 13 6.96 13 9 13 C8.67 14.65 8.34 16.3 8 18 C6.37536158 18.05395478 4.75021459 18.09277195 3.125 18.125 C2.22007812 18.14820313 1.31515625 18.17140625 0.3828125 18.1953125 C-2 18 -2 18 -4 16 C-3.90625 14.046875 -3.90625 14.046875 -3.5 11.75 C-2.92187309 7.63666025 -3.31323163 4.86964509 -5 1 C-2 0 -2 0 0 0 Z " fill="#01320A" transform="translate(159,126)"/>
<path d="M0 0 C0.66 0 1.32 0 2 0 C2 0.66 2 1.32 2 2 C2.66 2 3.32 2 4 2 C4 2.66 4 3.32 4 4 C6.97 3.34 9.94 2.68 13 2 C12.01 3.485 12.01 3.485 11 5 C10.01 5 9.02 5 8 5 C8 5.66 8 6.32 8 7 C8.66 7.33 9.32 7.66 10 8 C5.545 8.495 5.545 8.495 1 9 C1.04125 10.11375 1.0825 11.2275 1.125 12.375 C1 16 1 16 -1 18 C-3.625 18.125 -3.625 18.125 -6 18 C-5.01 17.01 -4.02 16.02 -3 15 C-3.33 14.34 -3.66 13.68 -4 13 C-2.68 13 -1.36 13 0 13 C0 8.71 0 4.42 0 0 Z " fill="#0D520F" transform="translate(111,126)"/>
<path d="M0 0 C2.08764473 0.78286677 4.03529239 1.69747807 6 2.75 C5.54625 3.141875 5.0925 3.53375 4.625 3.9375 C2.72357081 6.05832487 1.93795972 8.08042235 1 10.75 C-1.31 10.75 -3.62 10.75 -6 10.75 C-6 7.78 -6 4.81 -6 1.75 C-2 -0.25 -2 -0.25 0 0 Z " fill="#125E11" transform="translate(117,112.25)"/>
<path d="M0 0 C4.75 0.875 4.75 0.875 7 2 C7 1.67 7 1.34 7 1 C8.98 1 10.96 1 13 1 C13 1.66 13 2.32 13 3 C12.01 3 11.02 3 10 3 C10 3.66 10 4.32 10 5 C11.32 4.67 12.64 4.34 14 4 C14.33 6.97 14.66 9.94 15 13 C14.34 12.67 13.68 12.34 13 12 C13 10.35 13 8.7 13 7 C10.03 7.66 7.06 8.32 4 9 C4 8.34 4 7.68 4 7 C2.68 7 1.36 7 0 7 C0 4.69 0 2.38 0 0 Z " fill="#0A490E" transform="translate(52,125)"/>
<path d="M0 0 C5 0 5 0 7.3125 1.6875 C9 4 9 4 9.375 6.625 C9 9 9 9 7 11 C3.375 11.125 3.375 11.125 0 11 C0 7.37 0 3.74 0 0 Z " fill="#0F4916" transform="translate(79,111)"/>
<path d="M0 0 C0.33 1.32 0.66 2.64 1 4 C3.475 4.495 3.475 4.495 6 5 C4.25 8.875 4.25 8.875 2 10 C-0.04055005 10.07065617 -2.08334257 10.08421976 -4.125 10.0625 C-5.22070312 10.05347656 -6.31640625 10.04445313 -7.4453125 10.03515625 C-8.70988281 10.01775391 -8.70988281 10.01775391 -10 10 C-10.33 9.01 -10.66 8.02 -11 7 C-12.65 7.33 -14.3 7.66 -16 8 C-16 7.01 -16 6.02 -16 5 C-11.38 5 -6.76 5 -2 5 C-1.34 3.35 -0.68 1.7 0 0 Z " fill="#44CF3A" transform="translate(120,117)"/>
<path d="M0 0 C0.33 0.66 0.66 1.32 1 2 C1.99 2 2.98 2 4 2 C4 6.95 4 11.9 4 17 C0.37 17 -3.26 17 -7 17 C-4.80595581 11.51488953 -4.80595581 11.51488953 -2.3125 9 C0.34319952 6.25610706 0.34319952 6.25610706 -0.25 3.1875 C-0.4975 2.465625 -0.745 1.74375 -1 1 C-0.67 0.67 -0.34 0.34 0 0 Z M2 8 C3 10 3 10 3 10 Z M1 10 C-0.36176581 11.98075027 -1.69593116 13.98079663 -3 16 C-1.02 16 0.96 16 3 16 C2.67 14.02 2.34 12.04 2 10 C1.67 10 1.34 10 1 10 Z " fill="#032527" transform="translate(35,114)"/>
<path d="M0 0 C0.70125 0.144375 1.4025 0.28875 2.125 0.4375 C5.07556141 1.01478375 8.03270151 1.51695141 11 2 C11 1.34 11 0.68 11 0 C16.36513131 0.847126 21.6787385 1.91681831 27 3 C27.33 5.64 27.66 8.28 28 11 C27.01 10.34 26.02 9.68 25 9 C24.8125 6.375 24.8125 6.375 25 4 C23.56208484 4.14168137 22.1246763 4.28851043 20.6875 4.4375 C19.88699219 4.51871094 19.08648437 4.59992188 18.26171875 4.68359375 C15.83912821 4.95265693 15.83912821 4.95265693 13 6 C13 5.34 13 4.68 13 4 C9.37 4 5.74 4 2 4 C1.34 2.68 0.68 1.36 0 0 Z " fill="#0F4A18" transform="translate(40,103)"/>
<path d="M0 0 C0.99 0 1.98 0 3 0 C2.67 1.65 2.34 3.3 2 5 C1.46890625 4.57847656 0.9378125 4.15695313 0.390625 3.72265625 C-0.31578125 3.17480469 -1.0221875 2.62695312 -1.75 2.0625 C-2.44609375 1.51722656 -3.1421875 0.97195312 -3.859375 0.41015625 C-8.06174166 -2.35819113 -12.04960038 -2.18001453 -17 -2 C-17.99 -1.67 -18.98 -1.34 -20 -1 C-20.33 -0.01 -20.66 0.98 -21 2 C-21.66 2 -22.32 2 -23 2 C-23 2.66 -23 3.32 -23 4 C-23.66 3.67 -24.32 3.34 -25 3 C-25.625 -0.0625 -25.625 -0.0625 -26 -3 C-16.1753756 -5.87144819 -8.67713755 -5.48961763 0 0 Z " fill="#062B1F" transform="translate(202,108)"/>
<path d="M0 0 C0.66 0.33 1.32 0.66 2 1 C1.67 2.32 1.34 3.64 1 5 C1.33 5 1.66 5 2 5 C2 8.96 2 12.92 2 17 C-2.5 12.5 -2.5 12.5 -3 9 C-3.99 9.33 -4.98 9.66 -6 10 C-6.33 8.02 -6.66 6.04 -7 4 C-6.401875 3.896875 -5.80375 3.79375 -5.1875 3.6875 C-2.71756736 2.91123545 -1.67748765 1.92911079 0 0 Z " fill="#0D5010" transform="translate(96,120)"/>
<path d="M0 0 C0.33 0 0.66 0 1 0 C1.33 6.6 1.66 13.2 2 20 C3.98 20 5.96 20 8 20 C8 20.66 8 21.32 8 22 C6.35 22 4.7 22 3 22 C3 22.66 3 23.32 3 24 C3.66 24.33 4.32 24.66 5 25 C3.02 25.33 1.04 25.66 -1 26 C-1 25.34 -1 24.68 -1 24 C-0.34 24 0.32 24 1 24 C0.67 23.34 0.34 22.68 0 22 C-0.07092842 19.7927077 -0.08415025 17.58332548 -0.0625 15.375 C-0.05347656 14.18648437 -0.04445312 12.99796875 -0.03515625 11.7734375 C-0.02355469 10.85820313 -0.01195312 9.94296875 0 9 C-1.65 9.33 -3.3 9.66 -5 10 C-3.35 6.7 -1.7 3.4 0 0 Z " fill="#1A5D12" transform="translate(159,117)"/>
<path d="M0 0 C0.06058594 0.97582031 0.12117188 1.95164062 0.18359375 2.95703125 C0.26738281 4.22933594 0.35117187 5.50164062 0.4375 6.8125 C0.51871094 8.07707031 0.59992187 9.34164062 0.68359375 10.64453125 C0.87184547 13.99181893 0.87184547 13.99181893 2 17 C1.67 17.66 1.34 18.32 1 19 C-1.64 19 -4.28 19 -7 19 C-7 19.66 -7 20.32 -7 21 C-7.66 21 -8.32 21 -9 21 C-9.66666667 19.66666667 -10.33333333 18.33333333 -11 17 C-9.02 17 -7.04 17 -5 17 C-4.67 14.69 -4.34 12.38 -4 10 C-3.01 10.33 -2.02 10.66 -1 11 C-1.144375 9.72125 -1.28875 8.4425 -1.4375 7.125 C-1.55931641 6.04605469 -1.55931641 6.04605469 -1.68359375 4.9453125 C-1.91292961 2.92595684 -1.91292961 2.92595684 -3 1 C-1 0 -1 0 0 0 Z " fill="#022E07" transform="translate(43,122)"/>
<path d="M0 0 C0.66 0 1.32 0 2 0 C2.144375 1.051875 2.28875 2.10375 2.4375 3.1875 C2.87526966 6.15460549 3.37804866 9.06794366 4 12 C3.41992188 11.98839844 2.83984375 11.97679688 2.2421875 11.96484375 C-1.44371811 11.92226728 -4.79628774 11.96296141 -8.4375 12.625 C-9.7059375 12.810625 -9.7059375 12.810625 -11 13 C-11.66 12.34 -12.32 11.68 -13 11 C-11.125 9.9375 -11.125 9.9375 -9 9 C-8.34 9.33 -7.68 9.66 -7 10 C-7 9.34 -7 8.68 -7 8 C-5.35 8 -3.7 8 -2 8 C-1.67 7.34 -1.34 6.68 -1 6 C-0.67 6.33 -0.34 6.66 0 7 C0.33 6.34 0.66 5.68 1 5 C0.34 4.67 -0.32 4.34 -1 4 C-0.67 2.68 -0.34 1.36 0 0 Z " fill="#1D7213" transform="translate(67,106)"/>
<path d="M0 0 C0.66 1.32 1.32 2.64 2 4 C4.64 3.34 7.28 2.68 10 2 C13 7.75 13 7.75 13 10 C10.36 10.33 7.72 10.66 5 11 C4.15841464 9.73461631 3.32700252 8.46246221 2.5 7.1875 C1.80390625 6.12595703 1.80390625 6.12595703 1.09375 5.04296875 C0 3 0 3 0 0 Z " fill="#5FDF2A" transform="translate(83,127)"/>
<path d="M0 0 C2 2.75 2 2.75 3 4.75 C0.69 4.75 -1.62 4.75 -4 4.75 C-4.33 3.76 -4.66 2.77 -5 1.75 C-5.66 1.75 -6.32 1.75 -7 1.75 C-7 2.74 -7 3.73 -7 4.75 C-8.98 4.75 -10.96 4.75 -13 4.75 C-12.67 3.1 -12.34 1.45 -12 -0.25 C-3.98753117 -2.99064838 -3.98753117 -2.99064838 0 0 Z " fill="#46AB62" transform="translate(223,117.25)"/>
<path d="M0 0 C0.33 0.66 0.66 1.32 1 2 C0.06553465 4.03144641 -0.93224776 6.03533587 -2 8 C-0.02 6.68 1.96 5.36 4 4 C2.9967047 7.23284041 1.97398572 8.015175 -1 9.75 C-5.57949541 11.48045651 -10.17731451 11.75230726 -15 11 C-17.39898708 9.90264155 -18.95941573 8.71838675 -21 7 C-18 7 -18 7 -15.625 8.0625 C-12.49573107 9.18009605 -11.11162853 9.11699486 -8 8 C-5.87508162 6.2085766 -5.87508162 6.2085766 -4 4 C-2.66666667 2.66666667 -1.33333333 1.33333333 0 0 Z " fill="#70EE27" transform="translate(198,126)"/>
<path d="M0 0 C0.33 0 0.66 0 1 0 C1 2.31 1 4.62 1 7 C1.66 7 2.32 7 3 7 C3.226875 6.21625 3.45375 5.4325 3.6875 4.625 C5 2 5 2 7.625 0.6875 C8.40875 0.460625 9.1925 0.23375 10 0 C10.33 1.32 10.66 2.64 11 4 C10.360625 4.28875 9.72125 4.5775 9.0625 4.875 C6.84793921 5.82823451 6.84793921 5.82823451 6 8 C5.525625 8.433125 5.05125 8.86625 4.5625 9.3125 C2.66331821 11.36361634 1.9197001 13.38239202 1 16 C0.67 16 0.34 16 0 16 C0 10.72 0 5.44 0 0 Z " fill="#257818" transform="translate(167,107)"/>
<path d="M0 0 C0.33 0 0.66 0 1 0 C1.33 8.58 1.66 17.16 2 26 C4.31 26.66 6.62 27.32 9 28 C9 28.66 9 29.32 9 30 C8.01 30.33 7.02 30.66 6 31 C6.33 31.66 6.66 32.32 7 33 C5.35 33.66 3.7 34.32 2 35 C2 33.35 2 31.7 2 30 C1.34 30 0.68 30 0 30 C0 20.1 0 10.2 0 0 Z " fill="#206D10" transform="translate(102,109)"/>
<path d="M0 0 C3.36720387 1.39332574 4.9859524 2.9789286 7 6 C5 8 5 8 1.0625 8.3125 C-1.76155426 8.25612142 -2.69182284 8.23113287 -5 6.5 C-5.33 6.005 -5.66 5.51 -6 5 C-4.02 3.35 -2.04 1.7 0 0 Z " fill="#09460F" transform="translate(188,124)"/>
<path d="M0 0 C1.9375 1.6875 1.9375 1.6875 3 4 C2.1875 6.75 2.1875 6.75 1 9 C-0.98 7.35 -2.96 5.7 -5 4 C-5.5775 4.28875 -6.155 4.5775 -6.75 4.875 C-9.875 6.4375 -9.875 6.4375 -13 8 C-13 7.34 -13 6.68 -13 6 C-5.51386709 -0.67242282 -5.51386709 -0.67242282 0 0 Z " fill="#196215" transform="translate(195,121)"/>
<path d="M0 0 C1.04537434 3.13612302 0.91893464 4.02049971 0.3125 7.125 C-0.36903902 12.55960988 1.14016212 16.40827271 4 21 C5.56667758 22.89860079 7.12544911 24.3858034 9 26 C8.34 26.33 7.68 26.66 7 27 C7.33 27.66 7.66 28.32 8 29 C7.01 28.67 6.02 28.34 5 28 C3.76132839 25.38502661 2.91496017 22.74488051 2 20 C-0.00016466 18.79117904 -0.00016466 18.79117904 -2 18 C-2 17.01 -2 16.02 -2 15 C-2.30050829 13.59673361 -2.63590136 12.20062607 -3 10.8125 C-3.33 9.554375 -3.66 8.29625 -4 7 C-3.34 7 -2.68 7 -2 7 C-2.33 6.01 -2.66 5.02 -3 4 C-2.34 4 -1.68 4 -1 4 C-0.67 2.68 -0.34 1.36 0 0 Z " fill="#0A3908" transform="translate(172,113)"/>
<path d="M0 0 C0.66 0 1.32 0 2 0 C2 0.66 2 1.32 2 2 C3.32 1.67 4.64 1.34 6 1 C6.05422947 2.4370809 6.09289723 3.87475462 6.125 5.3125 C6.14820313 6.11300781 6.17140625 6.91351563 6.1953125 7.73828125 C6 10 6 10 4 13 C2.68 12.67 1.36 12.34 0 12 C-0.125 6.25 -0.125 6.25 1 4 C0.34 3.67 -0.32 3.34 -1 3 C-0.67 2.01 -0.34 1.02 0 0 Z " fill="#388C1C" transform="translate(9,106)"/>
<path d="M0 0 C0.33 0.66 0.66 1.32 1 2 C1.66 2 2.32 2 3 2 C3 2.66 3 3.32 3 4 C4.32 4.66 5.64 5.32 7 6 C5.71937515 7.7074998 4.38232443 9.37373596 3 11 C2.34 11 1.68 11 1 11 C0.67 11.66 0.34 12.32 0 13 C-2.45811625 9.31282562 -2.31118164 7.35654296 -2 3 C-1.34 2.01 -0.68 1.02 0 0 Z " fill="#115510" transform="translate(181,116)"/>
<path d="M0 0 C1.98 0 3.96 0 6 0 C8.125 6.75 8.125 6.75 7 9 C4.69 9 2.38 9 0 9 C0 6.03 0 3.06 0 0 Z " fill="#299C74" transform="translate(72,113)"/>
<path d="M0 0 C2.31 0 4.62 0 7 0 C7 2.64 7 5.28 7 8 C6.113125 7.814375 5.22625 7.62875 4.3125 7.4375 C1.14821189 7.01957516 -0.94839642 7.19222258 -4 8 C-3.34 6.02 -2.68 4.04 -2 2 C-1.34 2 -0.68 2 0 2 C0 1.34 0 0.68 0 0 Z " fill="#1C9179" transform="translate(160,107)"/>
<path d="M0 0 C1.32 0 2.64 0 4 0 C4.33 1.32 4.66 2.64 5 4 C5.99 3.67 6.98 3.34 8 3 C10 5 10 5 10.125 8.625 C10.08375 9.73875 10.0425 10.8525 10 12 C9.5875 11.505 9.175 11.01 8.75 10.5 C6.87797662 8.56613908 6.87797662 8.56613908 3 9 C3 8.01 3 7.02 3 6 C1.68 6.33 0.36 6.66 -1 7 C-1.99 5.68 -2.98 4.36 -4 3 C-1.69 3.33 0.62 3.66 3 4 C3 3.34 3 2.68 3 2 C2.01 2 1.02 2 0 2 C0 1.34 0 0.68 0 0 Z " fill="#09440B" transform="translate(188,113)"/>
<path d="M0 0 C0.33 0 0.66 0 1 0 C1.33 8.91 1.66 17.82 2 27 C3.32 26.67 4.64 26.34 6 26 C6.33 24.02 6.66 22.04 7 20 C7.33 20 7.66 20 8 20 C8 22.97 8 25.94 8 29 C5.36 29 2.72 29 0 29 C0 19.43 0 9.86 0 0 Z " fill="#61E324" transform="translate(71,108)"/>
<path d="M0 0 C0 1.65 0 3.3 0 5 C-2 5 -4 5 -6 5 C-6 5.66 -6 6.32 -6 7 C-10.29 7 -14.58 7 -19 7 C-17 5 -17 5 -14.8359375 4.8046875 C-13.61777344 4.83949219 -13.61777344 4.83949219 -12.375 4.875 C-11.14910156 4.90207031 -11.14910156 4.90207031 -9.8984375 4.9296875 C-8.95871094 4.96449219 -8.95871094 4.96449219 -8 5 C-8.33 4.01 -8.66 3.02 -9 2 C-5.86501708 0.14223235 -3.62528568 -0.20140476 0 0 Z " fill="#337312" transform="translate(65,132)"/>
<path d="M0 0 C6.15234375 -0.09765625 6.15234375 -0.09765625 8 0 C8.33 0.33 8.66 0.66 9 1 C11.01964199 1.07244053 13.04167124 1.08377188 15.0625 1.0625 C16.16722656 1.05347656 17.27195312 1.04445313 18.41015625 1.03515625 C19.26480469 1.02355469 20.11945312 1.01195313 21 1 C20.67 1.66 20.34 2.32 20 3 C18.02 3 16.04 3 14 3 C14 3.33 14 3.66 14 4 C9.38 4.33 4.76 4.66 0 5 C0 3.35 0 1.7 0 0 Z " fill="#02848A" transform="translate(15,107)"/>
<path d="M0 0 C2.97 0.495 2.97 0.495 6 1 C6 1.66 6 2.32 6 3 C6.94875 3.12375 7.8975 3.2475 8.875 3.375 C12 4 12 4 14 6 C13.625 9.125 13.625 9.125 13 12 C12.34 12 11.68 12 11 12 C11 9.69 11 7.38 11 5 C8.36 5 5.72 5 3 5 C2.67 5.66 2.34 6.32 2 7 C2 6.34 2 5.68 2 5 C1.01 5.33 0.02 5.66 -1 6 C-0.67 4.02 -0.34 2.04 0 0 Z " fill="#0B4213" transform="translate(157,102)"/>
<path d="M0 0 C0.33 0.66 0.66 1.32 1 2 C0.34 2 -0.32 2 -1 2 C-0.525625 2.78375 -0.05125 3.5675 0.4375 4.375 C2.99270789 8.66774925 3.1214318 11.71099452 3.0625 16.625 C3.05798828 17.33140625 3.05347656 18.0378125 3.04882812 18.765625 C3.03703875 20.51045275 3.01910324 22.255237 3 24 C2.67 24 2.34 24 2 24 C1.67 19.71 1.34 15.42 1 11 C1 11.99 1 12.98 1 14 C0.01 13.67 -0.98 13.34 -2 13 C-2 10.03 -2 7.06 -2 4 C-2.99 4 -3.98 4 -5 4 C-5 3.34 -5 2.68 -5 2 C-3.35 1.34 -1.7 0.68 0 0 Z " fill="#247A14" transform="translate(41,112)"/>
<path d="M0 0 C0 0.33 0 0.66 0 1 C-5.94 1 -11.88 1 -18 1 C-17.67 0.01 -17.34 -0.98 -17 -2 C-10.53916383 -4.15361206 -5.86221379 -2.87128839 0 0 Z " fill="#078881" transform="translate(199,108)"/>
<path d="M0 0 C0.66 0 1.32 0 2 0 C3.55694101 2.09758656 5.01153354 4.19112891 6.4375 6.375 C9.59522261 11.24659553 9.59522261 11.24659553 14 15 C15.32 15 16.64 15 18 15 C18.66 14.01 19.32 13.02 20 12 C20 13.98 20 15.96 20 18 C17.69 18.33 15.38 18.66 13 19 C10.82554873 16.21431795 8.66179961 13.42050802 6.5 10.625 C5.87996094 9.8309375 5.25992188 9.036875 4.62109375 8.21875 C4.03457031 7.45820312 3.44804687 6.69765625 2.84375 5.9140625 C2.29912109 5.2123291 1.75449219 4.5105957 1.19335938 3.78759766 C0 2 0 2 0 0 Z " fill="#6DEB23" transform="translate(216,119)"/>
<path d="M0 0 C0.99 0.33 1.98 0.66 3 1 C3 3.31 3 5.62 3 8 C2.34 8 1.68 8 1 8 C0.34 9.32 -0.32 10.64 -1 12 C-1 10.35 -1 8.7 -1 7 C-2.91697937 7.14166357 -4.83357723 7.28849584 -6.75 7.4375 C-7.81734375 7.51871094 -8.8846875 7.59992188 -9.984375 7.68359375 C-12.43679962 7.94090773 -14.63921291 8.31812218 -17 9 C-17.33 7.35 -17.66 5.7 -18 4 C-17.071875 4.144375 -16.14375 4.28875 -15.1875 4.4375 C-10.14594684 5.16364963 -5.07370796 5.5687807 0 6 C0 4.02 0 2.04 0 0 Z " fill="#09480E" transform="translate(39,125)"/>
<path d="M0 0 C1.98 0 3.96 0 6 0 C6.25 6.625 6.25 6.625 4 10 C3.01 10 2.02 10 1 10 C-0.1577506 6.52674819 -0.06866652 3.63932552 0 0 Z " fill="#4DD837" transform="translate(134,122)"/>
<path d="M0 0 C0.97353743 3.02878312 1.24612776 5.02846457 0 8 C-2.55450494 10.38420461 -3.4404523 11 -7 11 C-7 10.34 -7 9.68 -7 9 C-6.01 8.34 -5.02 7.68 -4 7 C-6.31 7.33 -8.62 7.66 -11 8 C-11 7.34 -11 6.68 -11 6 C-11.66 5.67 -12.32 5.34 -13 5 C-12.09507813 4.96132812 -12.09507813 4.96132812 -11.171875 4.921875 C-5.89464661 4.59668017 -5.89464661 4.59668017 -1.4375 1.9375 C-0.963125 1.298125 -0.48875 0.65875 0 0 Z " fill="#1D6A17" transform="translate(126,122)"/>
<path d="M0 0 C0.66 0.33 1.32 0.66 2 1 C3.67654729 0.72057545 5.34608154 0.39171753 7 0 C6.34 2.97 5.68 5.94 5 9 C3.02 9 1.04 9 -1 9 C-0.67 6.03 -0.34 3.06 0 0 Z " fill="#39A76B" transform="translate(174,113)"/>
<path d="M0 0 C0.66 0.33 1.32 0.66 2 1 C1.34 1.66 0.68 2.32 0 3 C-0.04401732 5.33291811 -0.03954234 7.66700175 0 10 C-0.33333333 11.66666667 -0.66666667 13.33333333 -1 15 C-1.03824623 17.33301986 -1.04574284 19.66711508 -1 22 C-1.66 22 -2.32 22 -3 22 C-4.81414798 15.19694507 -4.97838239 7.45316184 -2 1 C-1.34 0.67 -0.68 0.34 0 0 Z " fill="#40911A" transform="translate(132,106)"/>
<path d="M0 0 C1.67542976 0.28604898 3.34385343 0.61781233 5 1 C5.04254356 2.99954746 5.04080783 5.00041636 5 7 C4 8 4 8 0.4375 8.0625 C-0.696875 8.041875 -1.83125 8.02125 -3 8 C-1.125 1.125 -1.125 1.125 0 0 Z " fill="#339B6B" transform="translate(123,114)"/>
<path d="M0 0 C4.29 0 8.58 0 13 0 C13 0.66 13 1.32 13 2 C11.35 2 9.7 2 8 2 C8 2.66 8 3.32 8 4 C6.35 4.33 4.7 4.66 3 5 C3.33 5.99 3.66 6.98 4 8 C2.68 7.67 1.36 7.34 0 7 C0 4.66666667 0 2.33333333 0 0 Z " fill="#0C4430" transform="translate(52,112)"/>
<path d="M0 0 C1.32 0 2.64 0 4 0 C4 0.99 4 1.98 4 3 C4.66 3 5.32 3 6 3 C6.33 4.65 6.66 6.3 7 8 C7.99 8 8.98 8 10 8 C9.67 8.99 9.34 9.98 9 11 C8.34 11 7.68 11 7 11 C6.67 11.66 6.34 12.32 6 13 C3 8.25 3 8.25 3 6 C1.68 6 0.36 6 -1 6 C-0.67 4.02 -0.34 2.04 0 0 Z " fill="#0D5618" transform="translate(37,108)"/>
<path d="M0 0 C2.475 0.495 2.475 0.495 5 1 C4.67 1.99 4.34 2.98 4 4 C3.34 4 2.68 4 2 4 C2.6496875 5.04800781 2.6496875 5.04800781 3.3125 6.1171875 C3.869375 7.02726562 4.42625 7.93734375 5 8.875 C5.556875 9.77992187 6.11375 10.68484375 6.6875 11.6171875 C8 14 8 14 8 16 C6.68 15.67 5.36 15.34 4 15 C4 14.01 4 13.02 4 12 C3.34 12 2.68 12 2 12 C1.67 12.66 1.34 13.32 1 14 C0.67 9.38 0.34 4.76 0 0 Z " fill="#063A0A" transform="translate(140,116)"/>
<path d="M0 0 C0.99 0 1.98 0 3 0 C5.20725389 5.3955095 5.20725389 5.3955095 4.25 8.1875 C3.8375 8.785625 3.425 9.38375 3 10 C2.01 11.485 2.01 11.485 1 13 C-1.625 13.1875 -1.625 13.1875 -4 13 C-4 12.34 -4 11.68 -4 11 C-2.68 11 -1.36 11 0 11 C0 7.37 0 3.74 0 0 Z " fill="#175610" transform="translate(79,126)"/>
<path d="M0 0 C2.97 0 5.94 0 9 0 C9.33 1.32 9.66 2.64 10 4 C8.5225254 4.36116046 7.04295325 4.71375048 5.5625 5.0625 C4.73878906 5.25972656 3.91507813 5.45695312 3.06640625 5.66015625 C2.38449219 5.77230469 1.70257813 5.88445312 1 6 C0 5 0 5 -0.0625 2.4375 C-0.041875 1.633125 -0.02125 0.82875 0 0 Z " fill="#13907D" transform="translate(134,107)"/>
<path d="M0 0 C0.556875 0.45375 1.11375 0.9075 1.6875 1.375 C4.05313439 3.03733768 6.29015658 4.02144543 9 5 C8.34 6.32 7.68 7.64 7 9 C4.36 8.67 1.72 8.34 -1 8 C-1 7.34 -1 6.68 -1 6 C-0.34 6 0.32 6 1 6 C0.67 4.02 0.34 2.04 0 0 Z " fill="#02430E" transform="translate(58,135)"/>
<path d="M0 0 C2.22433284 1.07097507 4.11399909 2.08981746 6.0625 3.625 C10.58389983 5.74139992 15.08691607 5.23231745 20 5 C20 5.99 20 6.98 20 8 C8.18478865 8.68826474 8.18478865 8.68826474 4.375 6.25 C2.21184255 4.20069294 0.99390147 2.78292412 0 0 Z " fill="#469715" transform="translate(174,131)"/>
<path d="M0 0 C0.33 0 0.66 0 1 0 C1 4.62 1 9.24 1 14 C6.55053286 13.25640327 6.55053286 13.25640327 12 12 C12.33 13.32 12.66 14.64 13 16 C11.02090602 16.02686553 9.04171029 16.04633375 7.0625 16.0625 C5.96035156 16.07410156 4.85820313 16.08570313 3.72265625 16.09765625 C1 16 1 16 0 15 C-0.07313567 12.46950598 -0.09247527 9.96695163 -0.0625 7.4375 C-0.05798828 6.72658203 -0.05347656 6.01566406 -0.04882812 5.28320312 C-0.03700864 3.52209987 -0.01907263 1.76103964 0 0 Z " fill="#6AEB2A" transform="translate(44,121)"/>
<path d="M0 0 C2 2 2 2 2.1953125 3.9453125 C2.13020833 5.96354167 2.06510417 7.98177083 2 10 C1.01 9.67 0.02 9.34 -1 9 C-1.33 9.99 -1.66 10.98 -2 12 C-2.66 11.34 -3.32 10.68 -4 10 C-4.66 10.66 -5.32 11.32 -6 12 C-8.125 11.625 -8.125 11.625 -10 11 C-9.071875 10.4225 -8.14375 9.845 -7.1875 9.25 C-3.28302311 6.49389866 -1.5017579 4.50527371 0 0 Z " fill="#1C5F11" transform="translate(205,125)"/>
<path d="M0 0 C6.27 0 12.54 0 19 0 C19 0.66 19 1.32 19 2 C15.04 2 11.08 2 7 2 C7 4.64 7 7.28 7 10 C6.67 10 6.34 10 6 10 C5.67 7.36 5.34 4.72 5 2 C4.01 2 3.02 2 2 2 C1.01 3.485 1.01 3.485 0 5 C0 3.35 0 1.7 0 0 Z " fill="#37C63C" transform="translate(45,122)"/>
<path d="M0 0 C0.99 0.33 1.98 0.66 3 1 C3 4.3 3 7.6 3 11 C2.01 10.67 1.02 10.34 0 10 C-1.72795352 9.93197033 -3.45835365 9.91504355 -5.1875 9.9375 C-6.08855469 9.94652344 -6.98960938 9.95554688 -7.91796875 9.96484375 C-8.94857422 9.98224609 -8.94857422 9.98224609 -10 10 C-9.67 9.34 -9.34 8.68 -9 8 C-6.35139573 7.40644386 -3.70802678 7.25790731 -1 7 C-0.67 4.69 -0.34 2.38 0 0 Z " fill="#18590D" transform="translate(98,129)"/>
<path d="M0 0 C2.1519437 3.22791555 2.20086443 4.28400809 2 8 C0.02 8 -1.96 8 -4 8 C-4.33 5.69 -4.66 3.38 -5 1 C-3.35 0.67 -1.7 0.34 0 0 Z " fill="#4AAD5E" transform="translate(204,114)"/>
<path d="M0 0 C0.33 0 0.66 0 1 0 C1.33 6.93 1.66 13.86 2 21 C3.32 21 4.64 21 6 21 C6 18.69 6 16.38 6 14 C6.33 14 6.66 14 7 14 C7 16.97 7 19.94 7 23 C4.69 23 2.38 23 0 23 C0 15.41 0 7.82 0 0 Z " fill="#6EF12C" transform="translate(209,114)"/>
<path d="M0 0 C2.86697492 1.28519565 4.97607712 2.57129254 7 5 C7 5.66 7 6.32 7 7 C4.03 7 1.06 7 -2 7 C-2.33 6.01 -2.66 5.02 -3 4 C-1.5625 1.8125 -1.5625 1.8125 0 0 Z " fill="#5ADA2D" transform="translate(17,128)"/>
<path d="M0 0 C0.66 0.33 1.32 0.66 2 1 C1.67 1.99 1.34 2.98 1 4 C1.66 4 2.32 4 3 4 C2.67 5.65 2.34 7.3 2 9 C-0.31 9 -2.62 9 -5 9 C-5 7.02 -5 5.04 -5 3 C-3.35 2.67 -1.7 2.34 0 2 C0 1.34 0 0.68 0 0 Z " fill="#0A4011" transform="translate(116,114)"/>
<path d="M0 0 C0.33 0 0.66 0 1 0 C1 2.64 1 5.28 1 8 C-1.31 8 -3.62 8 -6 8 C-6 6.35 -6 4.7 -6 3 C-5.195625 2.87625 -4.39125 2.7525 -3.5625 2.625 C-2.716875 2.41875 -1.87125 2.2125 -1 2 C-0.67 1.34 -0.34 0.68 0 0 Z " fill="#3CA465" transform="translate(110,114)"/>
<path d="M0 0 C0.66 0.66 1.32 1.32 2 2 C5.58343976 2.16677282 5.58343976 2.16677282 9 2 C8.67 3.32 8.34 4.64 8 6 C4.37 6 0.74 6 -3 6 C-3.33 5.34 -3.66 4.68 -4 4 C-2.68 4 -1.36 4 0 4 C0 2.68 0 1.36 0 0 Z " fill="#044410" transform="translate(208,138)"/>
<path d="M0 0 C6.93 0.495 6.93 0.495 14 1 C14 1.33 14 1.66 14 2 C12.8553125 2.1546875 12.8553125 2.1546875 11.6875 2.3125 C8.95602059 2.74332384 8.95602059 2.74332384 7.5625 4.625 C7.046875 5.07875 6.53125 5.5325 6 6 C2.8125 5.6875 2.8125 5.6875 0 5 C0 3.33333333 0 1.66666667 0 0 Z " fill="#094B11" transform="translate(178,138)"/>
<path d="M0 0 C2.97 0 5.94 0 9 0 C9 0.66 9 1.32 9 2 C7.02 2 5.04 2 3 2 C2.67 3.32 2.34 4.64 2 6 C-0.97 6 -3.94 6 -7 6 C-6.34 5.01 -5.68 4.02 -5 3 C-2.375 2.8125 -2.375 2.8125 0 3 C0 2.01 0 1.02 0 0 Z " fill="#175C12" transform="translate(29,137)"/>
<path d="M0 0 C1.98 0 3.96 0 6 0 C6 0.66 6 1.32 6 2 C5.01 2 4.02 2 3 2 C3 2.66 3 3.32 3 4 C4.32 3.67 5.64 3.34 7 3 C7.33 5.97 7.66 8.94 8 12 C7.34 11.67 6.68 11.34 6 11 C6 9.35 6 7.7 6 6 C4.02 6 2.04 6 0 6 C0 4.02 0 2.04 0 0 Z " fill="#04370D" transform="translate(59,126)"/>
<path d="M0 0 C4.95 0 9.9 0 15 0 C13.515 1.485 13.515 1.485 12 3 C9.3125 2.6875 9.3125 2.6875 7 2 C6.67 2.99 6.34 3.98 6 5 C4.35 4.67 2.7 4.34 1 4 C0.67 2.68 0.34 1.36 0 0 Z " fill="#073E27" transform="translate(14,112)"/>
<path d="M0 0 C0.33 0 0.66 0 1 0 C1.33 6.6 1.66 13.2 2 20 C2.99 20 3.98 20 5 20 C5.33 19.34 5.66 18.68 6 18 C6.33 19.32 6.66 20.64 7 22 C4.69 22.33 2.38 22.66 0 23 C0 15.41 0 7.82 0 0 Z " fill="#6BED27" transform="translate(160,115)"/>
<path d="M0 0 C1.15242188 0.10183594 2.30484375 0.20367187 3.4921875 0.30859375 C4.36101563 0.39238281 5.22984375 0.47617188 6.125 0.5625 C6.125 1.2225 6.125 1.8825 6.125 2.5625 C-0.145 2.5625 -6.415 2.5625 -12.875 2.5625 C-12.875 1.9025 -12.875 1.2425 -12.875 0.5625 C-8.41295824 -0.3529645 -4.52954615 -0.41597873 0 0 Z " fill="#44AF63" transform="translate(57.875,119.4375)"/>
<path d="M0 0 C2.5 2.25 2.5 2.25 5 5 C5 6.32 5 7.64 5 9 C4.34 9 3.68 9 3 9 C3 8.01 3 7.02 3 6 C2.24074219 5.95101562 1.48148438 5.90203125 0.69921875 5.8515625 C-0.79158203 5.73941406 -0.79158203 5.73941406 -2.3125 5.625 C-3.29863281 5.55539063 -4.28476562 5.48578125 -5.30078125 5.4140625 C-8 5 -8 5 -11 3 C-7.37 3 -3.74 3 0 3 C0 2.01 0 1.02 0 0 Z " fill="#033012" transform="translate(38,102)"/>
<path d="M0 0 C1.98 0 3.96 0 6 0 C6 1.98 6 3.96 6 6 C4.35 6 2.7 6 1 6 C0.67 6.99 0.34 7.98 0 9 C0 6.03 0 3.06 0 0 Z " fill="#178C7D" transform="translate(230,107)"/>
<path d="M0 0 C2.75861118 4.13791677 4.27302852 6.71703018 4.125 11.75 C4.10695312 12.54921875 4.08890625 13.3484375 4.0703125 14.171875 C4.03550781 15.07679687 4.03550781 15.07679687 4 16 C1.19155042 13.72228105 0.08264522 12.63802112 -0.390625 8.984375 C-0.34421875 7.91703125 -0.2978125 6.8496875 -0.25 5.75 C-0.21390625 4.67234375 -0.1778125 3.5946875 -0.140625 2.484375 C-0.09421875 1.66453125 -0.0478125 0.8446875 0 0 Z " fill="#256D13" transform="translate(224,108)"/>
<path d="M0 0 C8.89959434 -0.3945633 14.50544011 0.00362674 22 5 C22.1875 7.625 22.1875 7.625 22 10 C21.401875 9.21625 20.80375 8.4325 20.1875 7.625 C16.38468654 3.06162385 12.92331068 2.51413997 7.3125 1.875 C6.2596582 1.74544922 6.2596582 1.74544922 5.18554688 1.61328125 C3.45788855 1.40173125 1.7290434 1.199914 0 1 C0 0.67 0 0.34 0 0 Z " fill="#05261C" transform="translate(106,105)"/>
<path d="M0 0 C0.33 0.66 0.66 1.32 1 2 C0.67 2.66 0.34 3.32 0 4 C1.65 3.34 3.3 2.68 5 2 C3.92598892 4.91517292 3.22189824 6.77810176 1 9 C-1.625 9.125 -1.625 9.125 -4 9 C-2.25 2.25 -2.25 2.25 0 0 Z " fill="#38A966" transform="translate(29,112)"/>
<path d="M0 0 C5.94 0.99 5.94 0.99 12 2 C12 2.33 12 2.66 12 3 C9.69 3 7.38 3 5 3 C5 5.64 5 8.28 5 11 C2.20016081 8.47111299 0.49069288 6.80286985 0 3 C0 2.01 0 1.02 0 0 Z " fill="#09450F" transform="translate(223,104)"/>
<path d="M0 0 C0.99 0.33 1.98 0.66 3 1 C3.33 4.3 3.66 7.6 4 11 C3.01 11 2.02 11 1 11 C0.67 10.34 0.34 9.68 0 9 C-2.52733235 8.34444881 -2.52733235 8.34444881 -5 8 C-5 7.01 -5 6.02 -5 5 C-2.525 5.495 -2.525 5.495 0 6 C0 4.02 0 2.04 0 0 Z " fill="#145F16" transform="translate(66,131)"/>
<path d="M0 0 C3.96 0 7.92 0 12 0 C11.67 0.99 11.34 1.98 11 3 C7.04 3 3.08 3 -1 3 C-0.67 2.01 -0.34 1.02 0 0 Z " fill="#5FDE2B" transform="translate(26,132)"/>
<path d="M0 0 C0.66 0 1.32 0 2 0 C3.83691257 3.78187881 4.15837626 5.94568308 3 10 C2.67 9.01 2.34 8.02 2 7 C-2.97906259 6.24572703 -2.97906259 6.24572703 -8 6 C-6.49736177 2.99472353 -4.08347159 3.02782386 -1 2 C-0.67 1.34 -0.34 0.68 0 0 Z " fill="#135B13" transform="translate(153,128)"/>
<path d="M0 0 C0.66 0 1.32 0 2 0 C2 0.99 2 1.98 2 3 C2.66 3.33 3.32 3.66 4 4 C3.34 4 2.68 4 2 4 C2 4.99 2 5.98 2 7 C3.32 6.34 4.64 5.68 6 5 C4.66666667 8.33333333 3.33333333 11.66666667 2 15 C1.34 15 0.68 15 0 15 C0 10.05 0 5.1 0 0 Z " fill="#023106" transform="translate(11,122)"/>
<path d="M0 0 C-3 2 -3 2 -6 3 C-6.33 3.99 -6.66 4.98 -7 6 C-7.66 6 -8.32 6 -9 6 C-9 6.66 -9 7.32 -9 8 C-9.66 7.67 -10.32 7.34 -11 7 C-11.625 3.9375 -11.625 3.9375 -12 1 C-7.9472484 0.01751476 -4.16138263 -0.08159574 0 0 Z " fill="#125714" transform="translate(188,104)"/>
<path d="M0 0 C0.61875 0.33 1.2375 0.66 1.875 1 C3.91018344 2.14193235 3.91018344 2.14193235 6 2 C6 2.66 6 3.32 6 4 C7.65 4 9.3 4 11 4 C11 4.33 11 4.66 11 5 C6.71 5.66 2.42 6.32 -2 7 C-1.34 4.69 -0.68 2.38 0 0 Z " fill="#135912" transform="translate(100,102)"/>
<path d="M0 0 C2.31 0.33 4.62 0.66 7 1 C7 1.33 7 1.66 7 2 C5.02 2 3.04 2 1 2 C1.04125 3.11375 1.0825 4.2275 1.125 5.375 C1 9 1 9 -1 11 C-3.625 11.125 -3.625 11.125 -6 11 C-5.01 10.01 -4.02 9.02 -3 8 C-3.33 7.34 -3.66 6.68 -4 6 C-2.68 6 -1.36 6 0 6 C0 4.02 0 2.04 0 0 Z " fill="#01370B" transform="translate(111,133)"/>
<path d="M0 0 C0.33 0 0.66 0 1 0 C1 6.6 1 13.2 1 20 C-0.65 19.67 -2.3 19.34 -4 19 C-3.01 17.515 -3.01 17.515 -2 16 C-2 15.34 -2 14.68 -2 14 C-1.34 14 -0.68 14 0 14 C0 9.38 0 4.76 0 0 Z " fill="#14600F" transform="translate(236,123)"/>
<path d="M0 0 C1.32 0 2.64 0 4 0 C4.33 1.32 4.66 2.64 5 4 C4.34 4 3.68 4 3 4 C3 4.66 3 5.32 3 6 C3.66 6.33 4.32 6.66 5 7 C4.01 7 3.02 7 2 7 C1.67 7.66 1.34 8.32 1 9 C1.66 9.33 2.32 9.66 3 10 C2.01 10 1.02 10 0 10 C0 6.7 0 3.4 0 0 Z " fill="#013708" transform="translate(128,132)"/>
<path d="M0 0 C0 3.96 0 7.92 0 12 C-4 8 -4 8 -5 6 C-5 4 -5 4 -3.125 1.75 C-1 0 -1 0 0 0 Z " fill="#052327" transform="translate(98,125)"/>
<path d="M0 0 C0.99 0.99 1.98 1.98 3 3 C-0.4019487 5.09350689 -3.05272412 5.17942163 -7 5 C-7.33 6.32 -7.66 7.64 -8 9 C-8 6.69 -8 4.38 -8 2 C-5.36 2 -2.72 2 0 2 C0 1.34 0 0.68 0 0 Z " fill="#35A06E" transform="translate(218,112)"/>
<path d="M0 0 C2.41674224 -0.02705308 4.8331794 -0.04686438 7.25 -0.0625 C7.93191406 -0.07087891 8.61382812 -0.07925781 9.31640625 -0.08789062 C12.69342554 -0.10428392 15.77291639 -0.05628768 19 1 C19 1.99 19 2.98 19 4 C17.02 4.33 15.04 4.66 13 5 C13.33 3.68 13.66 2.36 14 1 C9.38 1 4.76 1 0 1 C0 0.67 0 0.34 0 0 Z " fill="#128677" transform="translate(16,111)"/>
<path d="M0 0 C0.66 0 1.32 0 2 0 C2.144375 1.051875 2.28875 2.10375 2.4375 3.1875 C2.87526966 6.15460549 3.37804866 9.06794366 4 12 C2.35 11.67 0.7 11.34 -1 11 C-1.33 9.35 -1.66 7.7 -2 6 C-1.01 6.495 -1.01 6.495 0 7 C0.33 6.34 0.66 5.68 1 5 C0.34 4.67 -0.32 4.34 -1 4 C-0.67 2.68 -0.34 1.36 0 0 Z " fill="#318119" transform="translate(67,106)"/>
<path d="M0 0 C2.97 0.33 5.94 0.66 9 1 C9 1.66 9 2.32 9 3 C7.3603125 3.4021875 7.3603125 3.4021875 5.6875 3.8125 C2.38307337 4.87663739 1.05039578 5.34654664 -1 8 C-1.33 6.02 -1.66 4.04 -2 2 C-1.34 2 -0.68 2 0 2 C0 1.34 0 0.68 0 0 Z " fill="#155812" transform="translate(131,136)"/>
<path d="M0 0 C0.33 0.99 0.66 1.98 1 3 C4.0745356 2.2236068 4.0745356 2.2236068 6 0 C6 2.64 6 5.28 6 8 C3.03 7.505 3.03 7.505 0 7 C0 4.69 0 2.38 0 0 Z " fill="#6DED2A" transform="translate(134,129)"/>
<path d="M0 0 C1.65 0 3.3 0 5 0 C4.67 1.65 4.34 3.3 4 5 C1.69 5 -0.62 5 -3 5 C-2.67 4.01 -2.34 3.02 -2 2 C-1.34 2 -0.68 2 0 2 C0 1.34 0 0.68 0 0 Z " fill="#3FA966" transform="translate(91,117)"/>
<path d="M0 0 C0.61875 0.7734375 0.61875 0.7734375 1.25 1.5625 C0.92 2.2225 0.59 2.8825 0.25 3.5625 C-2.625 4.3125 -2.625 4.3125 -5.75 4.5625 C-6.74 3.9025 -7.73 3.2425 -8.75 2.5625 C-7.17932829 0.75622753 -5.95700414 -0.34693569 -3.75 -1.3125 C-1.75 -1.4375 -1.75 -1.4375 0 0 Z " fill="#229571" transform="translate(217.75,110.4375)"/>
<path d="M0 0 C1.32 0.66 2.64 1.32 4 2 C4 3.32 4 4.64 4 6 C1.125 6.1875 1.125 6.1875 -2 6 C-2.66 5.01 -3.32 4.02 -4 3 C-2.68 2.67 -1.36 2.34 0 2 C0 1.34 0 0.68 0 0 Z " fill="#1A9379" transform="translate(122,109)"/>
<path d="M0 0 C2.31 0 4.62 0 7 0 C6.67 1.32 6.34 2.64 6 4 C3.36 4 0.72 4 -2 4 C-2 3.34 -2 2.68 -2 2 C-1.34 2 -0.68 2 0 2 C0 1.34 0 0.68 0 0 Z " fill="#0B8781" transform="translate(160,107)"/>
<path d="M0 0 C2.3431213 0.25561323 4.67843403 0.59270772 7 1 C7.33 1.66 7.66 2.32 8 3 C7.67 3.66 7.34 4.32 7 5 C4.69 5 2.38 5 0 5 C0 3.35 0 1.7 0 0 Z " fill="#41AD63" transform="translate(72,117)"/>
<path d="M0 0 C-0.33 1.98 -0.66 3.96 -1 6 C-2.98 6 -4.96 6 -7 6 C-6.67 4.35 -6.34 2.7 -6 1 C-3.92446352 0.4465236 -2.15634036 0 0 0 Z " fill="#1F9378" transform="translate(111,111)"/>
<path d="M0 0 C0 1.65 0 3.3 0 5 C-1.65 5 -3.3 5 -5 5 C-5.33 5.66 -5.66 6.32 -6 7 C-6.33 5.35 -6.66 3.7 -7 2 C-4.35261084 0.5393715 -3.10551666 0 0 0 Z " fill="#249676" transform="translate(96,112)"/>
<path d="M0 0 C0 1.65 0 3.3 0 5 C-1.65 5 -3.3 5 -5 5 C-5.66 3.68 -6.32 2.36 -7 1 C-4.53721199 -0.231394 -2.7204945 -0.07159196 0 0 Z " fill="#65E028" transform="translate(65,132)"/>
<path d="M0 0 C0.28875 0.61875 0.5775 1.2375 0.875 1.875 C1.93720042 4.13325765 1.93720042 4.13325765 4 6 C3.625 9.125 3.625 9.125 3 12 C1.68 12.33 0.36 12.66 -1 13 C-0.34 11.35 0.32 9.7 1 8 C0.67 7.67 0.34 7.34 0 7 C-0.04092937 4.66702567 -0.04241723 2.33294775 0 0 Z " fill="#1F7325" transform="translate(96,113)"/>
<path d="M0 0 C1.65 0 3.3 0 5 0 C5 4 5 4 4 6 C2.68 5.67 1.36 5.34 0 5 C0 3.35 0 1.7 0 0 Z " fill="#09511B" transform="translate(79,111)"/>
<path d="M0 0 C1.5 1.375 1.5 1.375 3 3 C3 3.66 3 4.32 3 5 C0.36 5.33 -2.28 5.66 -5 6 C-5.66 4.35 -6.32 2.7 -7 1 C-4.69 1.66 -2.38 2.32 0 3 C0 2.01 0 1.02 0 0 Z " fill="#6EEB25" transform="translate(93,132)"/>
<path d="M0 0 C0.33 0 0.66 0 1 0 C1.33 2.64 1.66 5.28 2 8 C2.66 8 3.32 8 4 8 C3.40138258 10.35171131 2.73075648 12.6859378 2 15 C1.01 15.495 1.01 15.495 0 16 C0 10.72 0 5.44 0 0 Z " fill="#42971E" transform="translate(167,107)"/>
<path d="M0 0 C3.96 0 7.92 0 12 0 C12 0.66 12 1.32 12 2 C11.360625 2.12375 10.72125 2.2475 10.0625 2.375 C9.381875 2.58125 8.70125 2.7875 8 3 C7.67 3.66 7.34 4.32 7 5 C6.401875 4.54625 5.80375 4.0925 5.1875 3.625 C3.49409348 2.36704087 1.75522914 1.17015276 0 0 Z " fill="#1D611B" transform="translate(52,124)"/>
<path d="M0 0 C0.33 0.66 0.66 1.32 1 2 C1.66 2.33 2.32 2.66 3 3 C1.9375 4.9375 1.9375 4.9375 0 7 C-3.6875 7.75 -3.6875 7.75 -7 8 C-7 7.34 -7 6.68 -7 6 C-6.360625 5.87625 -5.72125 5.7525 -5.0625 5.625 C-4.381875 5.41875 -3.70125 5.2125 -3 5 C-2.67 4.34 -2.34 3.68 -2 3 C-1.34 3.33 -0.68 3.66 0 4 C0 2.68 0 1.36 0 0 Z " fill="#349759" transform="translate(51,113)"/>
<path d="M0 0 C0.33 0 0.66 0 1 0 C1.02705729 1.77074917 1.04642195 3.54161711 1.0625 5.3125 C1.07410156 6.29863281 1.08570313 7.28476563 1.09765625 8.30078125 C1 11 1 11 0 14 C-0.66 13.67 -1.32 13.34 -2 13 C-1.835 12.13375 -1.67 11.2675 -1.5 10.375 C-0.91909293 7.02251659 -0.91909293 7.02251659 -1 3.6875 C-1 1 -1 1 0 0 Z " fill="#144B09" transform="translate(132,108)"/>
<path d="M0 0 C0.66 0.66 1.32 1.32 2 2 C2.66 1.34 3.32 0.68 4 0 C4.66 3.3 5.32 6.6 6 10 C2.46413986 6.82679218 0.41421969 4.83256305 0 0 Z M3 3 C4 5 4 5 4 5 Z " fill="#042721" transform="translate(219,109)"/>
<path d="M0 0 C0.66 0 1.32 0 2 0 C2 0.99 2 1.98 2 3 C2.66 3 3.32 3 4 3 C4 2.34 4 1.68 4 1 C5.65 1 7.3 1 9 1 C8.67 1.99 8.34 2.98 8 4 C4.37 4 0.74 4 -3 4 C-2.01 3.34 -1.02 2.68 0 2 C0 1.34 0 0.68 0 0 Z " fill="#024212" transform="translate(71,140)"/>
<path d="M0 0 C3.50683673 0.78903826 4.54087317 2.66008988 6.5 5.5625 C5.9225 5.2325 5.345 4.9025 4.75 4.5625 C2.30116138 3.29174102 2.30116138 3.29174102 -1.5 3.5625 C-3.12514468 5.02083358 -3.12514468 5.02083358 -4.5 6.5625 C-5.16 6.5625 -5.82 6.5625 -6.5 6.5625 C-6.5 4.5625 -6.5 4.5625 -4.8125 2.4375 C-2.5 0.5625 -2.5 0.5625 0 0 Z " fill="#59DB31" transform="translate(188.5,122.4375)"/>
<path d="M0 0 C0.99 0.66 1.98 1.32 3 2 C2.67 3.32 2.34 4.64 2 6 C1.34 5.67 0.68 5.34 0 5 C-2.00800456 5.28112064 -4.01014051 5.61067967 -6 6 C-6 5.01 -6 4.02 -6 3 C-4.68 3.33 -3.36 3.66 -2 4 C-1.34 2.68 -0.68 1.36 0 0 Z " fill="#216B17" transform="translate(85,113)"/>
<path d="M0 0 C0.66 0.33 1.32 0.66 2 1 C-0.34591852 3.7710688 -2.14776201 4.52059284 -5.6875 5.1875 C-6.49574219 5.34605469 -7.30398437 5.50460938 -8.13671875 5.66796875 C-9.05904297 5.83232422 -9.05904297 5.83232422 -10 6 C-10 5.01 -10 4.02 -10 3 C-8.906875 2.87625 -7.81375 2.7525 -6.6875 2.625 C-2.92618198 2.24535199 -2.92618198 2.24535199 0 0 Z " fill="#0E6D5C" transform="translate(121,108)"/>
<path d="M0 0 C0.66 0 1.32 0 2 0 C1.67 1.98 1.34 3.96 1 6 C1.66 6 2.32 6 3 6 C2.67 7.32 2.34 8.64 2 10 C1.34 10 0.68 10 0 10 C-1.125 3.375 -1.125 3.375 0 0 Z " fill="#034A0C" transform="translate(10,131)"/>
<path d="M0 0 C2.31 0.66 4.62 1.32 7 2 C6.01 2.495 6.01 2.495 5 3 C4.34227572 6.02934491 4.34227572 6.02934491 4 9 C2.00902154 6.01353231 1.05875074 3.40312738 0 0 Z " fill="#09510E" transform="translate(125,104)"/>
<path d="M0 0 C0.66 0.33 1.32 0.66 2 1 C2.625 3.5625 2.625 3.5625 3 6 C1.35 6 -0.3 6 -2 6 C-2.33 5.34 -2.66 4.68 -3 4 C-2.01 2.68 -1.02 1.36 0 0 Z " fill="#46AD61" transform="translate(146,116)"/>
<path d="M0 0 C2 2 2 2 2 6 C0.02 6 -1.96 6 -4 6 C-3.67 4.68 -3.34 3.36 -3 2 C-2.01 2.33 -1.02 2.66 0 3 C0 2.01 0 1.02 0 0 Z " fill="#49B365" transform="translate(138,116)"/>
<path d="M0 0 C0 1.65 0 3.3 0 5 C-2.31 5 -4.62 5 -7 5 C-6.34 4.67 -5.68 4.34 -5 4 C-5 3.01 -5 2.02 -5 1 C-1.125 0 -1.125 0 0 0 Z " fill="#43AD62" transform="translate(127,117)"/>
<path d="M0 0 C2.97 0 5.94 0 9 0 C7 3 7 3 3.875 3.6875 C2.92625 3.790625 1.9775 3.89375 1 4 C0.67 2.68 0.34 1.36 0 0 Z " fill="#06847F" transform="translate(134,107)"/>
<path d="M0 0 C0.66 0.33 1.32 0.66 2 1 C1.67 2.32 1.34 3.64 1 5 C0.01 5 -0.98 5 -2 5 C-2.33 5.66 -2.66 6.32 -3 7 C-3 6.34 -3 5.68 -3 5 C-3.66 5 -4.32 5 -5 5 C-5.33 5.66 -5.66 6.32 -6 7 C-6 6.34 -6 5.68 -6 5 C-6.66 4.67 -7.32 4.34 -8 4 C-5.36 3.67 -2.72 3.34 0 3 C0 2.01 0 1.02 0 0 Z " fill="#012B05" transform="translate(194,136)"/>
<path d="M0 0 C0.66 0.99 1.32 1.98 2 3 C2.99 3 3.98 3 5 3 C4.67 3.99 4.34 4.98 4 6 C3.34 6 2.68 6 2 6 C1.67 6.66 1.34 7.32 1 8 C-2 3.25 -2 3.25 -2 1 C-1.34 0.67 -0.68 0.34 0 0 Z " fill="#06470A" transform="translate(42,113)"/>
<path d="M0 0 C1.98 0 3.96 0 6 0 C6 1.32 6 2.64 6 4 C4.35 4 2.7 4 1 4 C0.67 2.68 0.34 1.36 0 0 Z " fill="#022C05" transform="translate(162,139)"/>
<path d="M0 0 C0.66 0 1.32 0 2 0 C2.33 0.99 2.66 1.98 3 3 C2.34 3.66 1.68 4.32 1 5 C1.99 5.66 2.98 6.32 4 7 C2.35 7 0.7 7 -1 7 C-2 4 -2 4 -1.0625 1.8125 C-0.5365625 0.9153125 -0.5365625 0.9153125 0 0 Z " fill="#013309" transform="translate(232,137)"/>
<path d="M0 0 C3.36720387 1.39332574 4.9859524 2.9789286 7 6 C6.01 6.33 5.02 6.66 4 7 C3.34 5.68 2.68 4.36 2 3 C0.35 3.33 -1.3 3.66 -3 4 C-2.01 2.68 -1.02 1.36 0 0 Z " fill="#063106" transform="translate(188,124)"/>
<path d="M0 0 C4.16138263 -0.08159574 7.9472484 0.01751476 12 1 C10.03617993 2.50559539 8.21736634 3.89131683 6 5 C5.67 4.01 5.34 3.02 5 2 C3.35 2.33 1.7 2.66 0 3 C0 2.01 0 1.02 0 0 Z " fill="#38C238" transform="translate(104,122)"/>
<path d="M0 0 C1.65 0 3.3 0 5 0 C5 1.32 5 2.64 5 4 C3.02 4 1.04 4 -1 4 C-0.67 2.68 -0.34 1.36 0 0 Z " fill="#50B35C" transform="translate(231,118)"/>
<path d="M0 0 C0 1.98 0 3.96 0 6 C-0.33 4.68 -0.66 3.36 -1 2 C-3.64 2 -6.28 2 -9 2 C-5.96271914 -1.03728086 -4.06215635 -1.35405212 0 0 Z " fill="#145719" transform="translate(65,118)"/>
<path d="M0 0 C0.66 0 1.32 0 2 0 C2 0.99 2 1.98 2 3 C2.66 3 3.32 3 4 3 C4 4.98 4 6.96 4 9 C1.47740939 7.02579865 1.0070192 6.03254358 0.3125 2.8125 C0.209375 1.884375 0.10625 0.95625 0 0 Z " fill="#084E0E" transform="translate(142,128)"/>
<path d="M0 0 C1.5625 1.625 1.5625 1.625 3 4 C2.6875 7.25 2.6875 7.25 2 10 C2.66 10.33 3.32 10.66 4 11 C3.01 11 2.02 11 1 11 C-1.42857143 3.57142857 -1.42857143 3.57142857 0 0 Z " fill="#0A550F" transform="translate(127,121)"/>
<path d="M0 0 C-0.33 0.66 -0.66 1.32 -1 2 C-0.01 2.33 0.98 2.66 2 3 C-1.375 3.1875 -1.375 3.1875 -5 3 C-5.66 2.01 -6.32 1.02 -7 0 C-2.25 -1.125 -2.25 -1.125 0 0 Z " fill="#4BDD3E" transform="translate(118,124)"/>
<path d="M0 0 C0 0.99 0 1.98 0 3 C-1.98 3 -3.96 3 -6 3 C-6 2.01 -6 1.02 -6 0 C-3.50907189 -1.24546405 -2.58919267 -0.7767578 0 0 Z " fill="#49AE5F" transform="translate(167,119)"/>
<path d="M0 0 C1.2065625 0.0309375 1.2065625 0.0309375 2.4375 0.0625 C2.4375 0.7225 2.4375 1.3825 2.4375 2.0625 C0.7875 2.3925 -0.8625 2.7225 -2.5625 3.0625 C-2.2325 4.0525 -1.9025 5.0425 -1.5625 6.0625 C-2.8825 5.7325 -4.2025 5.4025 -5.5625 5.0625 C-3.15007962 0.07683121 -3.15007962 0.07683121 0 0 Z " fill="#064006" transform="translate(57.5625,113.9375)"/>
<path d="M0 0 C1.32 0.66 2.64 1.32 4 2 C0.77208445 4.1519437 -0.28400809 4.20086443 -4 4 C-4 3.01 -4 2.02 -4 1 C-3.01 1.33 -2.02 1.66 -1 2 C-0.67 1.34 -0.34 0.68 0 0 Z " fill="#217616" transform="translate(21,114)"/>
<path d="M0 0 C-1.32 1.65 -2.64 3.3 -4 5 C-4.99 4.67 -5.98 4.34 -7 4 C-7 3.01 -7 2.02 -7 1 C-3.375 -1.125 -3.375 -1.125 0 0 Z " fill="#368C13" transform="translate(118,113)"/>
<path d="M0 0 C1.98 0.99 1.98 0.99 4 2 C3.67 3.98 3.34 5.96 3 8 C2.34 8 1.68 8 1 8 C0.67 5.36 0.34 2.72 0 0 Z " fill="#052226" transform="translate(167,106)"/>
<path d="M0 0 C3 2 3 2 4 5 C3.5625 7.6875 3.5625 7.6875 3 10 C0.70366176 6.55549263 0.45983515 4.06187717 0 0 Z " fill="#064710" transform="translate(6,107)"/>
<path d="M0 0 C2.64 0.33 5.28 0.66 8 1 C7.67 3.97 7.34 6.94 7 10 C6.67 10 6.34 10 6 10 C6 7.69 6 5.38 6 3 C4.35 3 2.7 3 1 3 C0.67 2.01 0.34 1.02 0 0 Z " fill="#0A470E" transform="translate(95,107)"/>
<path d="M0 0 C4.12751449 0.60698743 7.3321148 2.03810791 11 4 C10.01 4.495 10.01 4.495 9 5 C8.67 5.66 8.34 6.32 8 7 C7.13375 6.071875 7.13375 6.071875 6.25 5.125 C4.19750179 3.18652947 2.56633418 2.09985751 0 1 C0 0.67 0 0.34 0 0 Z " fill="#072E1B" transform="translate(88,106)"/>
<path d="M0 0 C2.64 0.33 5.28 0.66 8 1 C8 1.66 8 2.32 8 3 C6.35 2.67 4.7 2.34 3 2 C3 2.66 3 3.32 3 4 C1.68 3.67 0.36 3.34 -1 3 C-0.67 2.01 -0.34 1.02 0 0 Z " fill="#012307" transform="translate(87,138)"/>
<path d="M0 0 C-0.66 0.66 -1.32 1.32 -2 2 C-2.99 2 -3.98 2 -5 2 C-5 2.66 -5 3.32 -5 4 C-4.34 4.33 -3.68 4.66 -3 5 C-4.9375 4.6875 -4.9375 4.6875 -7 4 C-7.33 3.01 -7.66 2.02 -8 1 C-2.25 -1.125 -2.25 -1.125 0 0 Z " fill="#033909" transform="translate(124,129)"/>
<path d="M0 0 C1.65 0.99 3.3 1.98 5 3 C4.01 3.99 3.02 4.98 2 6 C0.68 5.34 -0.64 4.68 -2 4 C-1.34 3.34 -0.68 2.68 0 2 C0 1.34 0 0.68 0 0 Z " fill="#073003" transform="translate(183,119)"/>
<path d="M0 0 C0.33 0.99 0.66 1.98 1 3 C3.01508358 3.73323796 3.01508358 3.73323796 5 4 C4.67 4.99 4.34 5.98 4 7 C2.68 6.67 1.36 6.34 0 6 C0 4.02 0 2.04 0 0 Z " fill="#34A46E" transform="translate(134,112)"/>
<path d="M0 0 C0.33 0.66 0.66 1.32 1 2 C2.98 2 4.96 2 7 2 C6.67 2.99 6.34 3.98 6 5 C4.68 4.67 3.36 4.34 2 4 C1.67 4.66 1.34 5.32 1 6 C0.67 4.02 0.34 2.04 0 0 Z " fill="#159280" transform="translate(72,109)"/>
<path d="M0 0 C0 0.66 0 1.32 0 2 C-2.64 2.33 -5.28 2.66 -8 3 C-7.67 2.01 -7.34 1.02 -7 0 C-4.05610218 -1.17755913 -3.10046087 -1.03348696 0 0 Z " fill="#064C11" transform="translate(20,141)"/>
<path d="M0 0 C0.98120464 3.05263664 0.98120464 4.94736336 0 8 C-2.35953094 5.64046906 -2.49141413 4.22104383 -3 1 C-2.01 0.67 -1.02 0.34 0 0 Z " fill="#06480D" transform="translate(157,126)"/>
<path d="M0 0 C1.74627478 2.61941217 2.38722388 4.03824877 3 7 C1.35 6.67 -0.3 6.34 -2 6 C-1.125 1.125 -1.125 1.125 0 0 Z " fill="#156415" transform="translate(168,122)"/>
<path d="M0 0 C2.375 -0.1875 2.375 -0.1875 5 0 C5.66 0.99 6.32 1.98 7 3 C4.69 3 2.38 3 0 3 C0 2.01 0 1.02 0 0 Z " fill="#51B35B" transform="translate(219,119)"/>
<path d="M0 0 C1.98 0 3.96 0 6 0 C6 0.99 6 1.98 6 3 C4.02 3 2.04 3 0 3 C0 2.01 0 1.02 0 0 Z " fill="#4BAE5E" transform="translate(173,119)"/>
<path d="M0 0 C1.32 0.33 2.64 0.66 4 1 C1.525 4.465 1.525 4.465 -1 8 C-1.33 6.68 -1.66 5.36 -2 4 C-1.01 3.34 -0.02 2.68 1 2 C0.67 1.34 0.34 0.68 0 0 Z " fill="#0F490A" transform="translate(23,114)"/>
<path d="M0 0 C0.66 0 1.32 0 2 0 C2 0.66 2 1.32 2 2 C2.99 2 3.98 2 5 2 C5 2.66 5 3.32 5 4 C3.1875 4.6875 3.1875 4.6875 1 5 C-0.75 3.5625 -0.75 3.5625 -2 2 C-1.34 2 -0.68 2 0 2 C0 1.34 0 0.68 0 0 Z " fill="#4D9D1E" transform="translate(186,113)"/>
<path d="M0 0 C0.99 0.33 1.98 0.66 3 1 C3 1.66 3 2.32 3 3 C1.35 3.33 -0.3 3.66 -2 4 C-2.33 4.99 -2.66 5.98 -3 7 C-3.33 6.34 -3.66 5.68 -4 5 C-2.68 3.35 -1.36 1.7 0 0 Z " fill="#144D23" transform="translate(183,112)"/>
<path d="M0 0 C-1.97420135 2.52259061 -2.96745642 2.9929808 -6.1875 3.6875 C-7.5796875 3.8421875 -7.5796875 3.8421875 -9 4 C-8.67 3.01 -8.34 2.02 -8 1 C-5.07175348 0.02391783 -3.04386724 -0.08226668 0 0 Z " fill="#20947B" transform="translate(184,111)"/>
<path d="M0 0 C0.91007813 0.10183594 1.82015625 0.20367187 2.7578125 0.30859375 C3.45648438 0.39238281 4.15515625 0.47617188 4.875 0.5625 C4.875 0.8925 4.875 1.2225 4.875 1.5625 C3.25175914 1.78412329 1.626279 1.98939803 0 2.1875 C-1.35738281 2.36152344 -1.35738281 2.36152344 -2.7421875 2.5390625 C-3.52851563 2.54679687 -4.31484375 2.55453125 -5.125 2.5625 C-5.785 1.9025 -6.445 1.2425 -7.125 0.5625 C-4.50184968 -0.74907516 -2.89466564 -0.33399988 0 0 Z " fill="#138777" transform="translate(186.125,109.4375)"/>
<path d="M0 0 C1.98 0.99 1.98 0.99 4 2 C4 2.99 4 3.98 4 5 C2.68 5.33 1.36 5.66 0 6 C0 4.02 0 2.04 0 0 Z " fill="#0B5311" transform="translate(13,123)"/>
<path d="M0 0 C2.31 0 4.62 0 7 0 C5 3 5 3 2.875 3.6875 C1.946875 3.8421875 1.946875 3.8421875 1 4 C0.67 2.68 0.34 1.36 0 0 Z " fill="#38C73C" transform="translate(87,122)"/>
<path d="M0 0 C1.32 0.99 2.64 1.98 4 3 C3.01 3.495 3.01 3.495 2 4 C2.33 4.99 2.66 5.98 3 7 C2.34 7 1.68 7 1 7 C-1 4 -1 4 -0.625 1.8125 C-0.41875 1.214375 -0.2125 0.61625 0 0 Z " fill="#115E15" transform="translate(67,118)"/>
<path d="M0 0 C0.33 0.99 0.66 1.98 1 3 C-0.65 3.33 -2.3 3.66 -4 4 C-4.33 3.01 -4.66 2.02 -5 1 C-3.35 0.67 -1.7 0.34 0 0 Z " fill="#39A166" transform="translate(204,114)"/>
<path d="M0 0 C0.33 0.99 0.66 1.98 1 3 C1.99 2.67 2.98 2.34 4 2 C4 2.99 4 3.98 4 5 C3.01 5.33 2.02 5.66 1 6 C0.01 4.68 -0.98 3.36 -2 2 C-1.34 1.34 -0.68 0.68 0 0 Z " fill="#06480C" transform="translate(207,108)"/>
</svg>
